<svg xmlns="http://www.w3.org/2000/svg" xmlns:xlink="http://www.w3.org/1999/xlink" width="500" zoomAndPan="magnify" viewBox="0 0 375 374.999991" height="500" preserveAspectRatio="xMidYMid meet" version="1.0"><defs><g/><clipPath id="819efabe0e"><path d="M 183 168 L 288 168 L 288 273.542969 L 183 273.542969 Z M 183 168 " clip-rule="nonzero"/></clipPath><clipPath id="63a7dda585"><path d="M 81 66.542969 L 245 66.542969 L 245 226 L 81 226 Z M 81 66.542969 " clip-rule="nonzero"/></clipPath><clipPath id="f7ccbbaf40"><path d="M 87 70 L 179 70 L 179 273.542969 L 87 273.542969 Z M 87 70 " clip-rule="nonzero"/></clipPath><clipPath id="5a14b0f08b"><path d="M 177 124 L 199 124 L 199 136.796875 L 177 136.796875 Z M 177 124 " clip-rule="nonzero"/></clipPath><clipPath id="647870cdf5"><path d="M 171.296875 83.546875 L 203.546875 83.546875 L 203.546875 124 L 171.296875 124 Z M 171.296875 83.546875 " clip-rule="nonzero"/></clipPath></defs><g clip-path="url(#819efabe0e)"><path fill="#b47625" d="M 285.007812 169.957031 C 285 175.289062 284.585938 180.722656 283.769531 185.832031 C 282.941406 191.011719 281.710938 196.125 280.09375 201.113281 C 278.492188 206.035156 276.636719 210.550781 274.320312 215.144531 C 272.019531 219.699219 269.378906 224.082031 266.425781 228.242188 C 264.921875 230.359375 263.53125 232.171875 261.882812 234.15625 C 260.269531 236.097656 258.582031 237.980469 256.828125 239.796875 C 255.074219 241.613281 253.257812 243.363281 251.375 245.046875 C 250.417969 245.90625 249.441406 246.746094 248.449219 247.566406 C 247.972656 247.960938 247.492188 248.351562 247.011719 248.738281 C 246.550781 249.105469 245.992188 249.542969 245.644531 249.808594 C 241.597656 252.902344 237.328125 255.699219 232.863281 258.160156 C 228.367188 260.640625 223.84375 262.707031 219.105469 264.445312 C 214.207031 266.242188 209.167969 267.65625 204.050781 268.675781 C 198.816406 269.71875 193.738281 270.3125 188.351562 270.519531 C 187.023438 270.570312 185.695312 270.597656 184.367188 270.597656 C 182.617188 270.597656 182.613281 273.316406 184.367188 273.316406 C 189.875 273.3125 195.371094 272.867188 200.8125 272.007812 C 206.042969 271.175781 211.207031 269.9375 216.246094 268.304688 C 221.28125 266.671875 226.152344 264.660156 230.859375 262.292969 C 235.480469 259.964844 239.929688 257.28125 244.144531 254.277344 C 248.375 251.265625 252.390625 247.949219 256.128906 244.34375 C 259.867188 240.738281 263.3125 236.847656 266.476562 232.726562 C 269.609375 228.648438 272.433594 224.332031 274.917969 219.828125 C 277.457031 215.226562 279.636719 210.425781 281.449219 205.492188 C 283.265625 200.546875 284.695312 195.457031 285.722656 190.289062 C 286.785156 184.929688 287.429688 179.484375 287.644531 174.023438 C 287.699219 172.667969 287.722656 171.3125 287.726562 169.957031 C 287.726562 168.207031 285.007812 168.203125 285.003906 169.957031 Z M 285.007812 169.957031 " fill-opacity="1" fill-rule="nonzero"/></g><g clip-path="url(#63a7dda585)"><path fill="#b47625" d="M 244.042969 85.558594 C 235.574219 79.5625 226.214844 74.855469 216.347656 71.640625 C 206.183594 68.332031 195.480469 66.640625 184.792969 66.597656 C 176.097656 66.5625 167.386719 67.617188 158.957031 69.742188 C 150.832031 71.796875 142.953125 74.863281 135.566406 78.820312 C 128.257812 82.738281 121.425781 87.558594 115.261719 93.097656 C 109.132812 98.605469 103.675781 104.855469 99.015625 111.652344 C 94.3125 118.507812 90.46875 125.941406 87.542969 133.726562 C 84.542969 141.707031 82.589844 150.046875 81.644531 158.519531 C 80.527344 168.519531 80.898438 178.675781 82.6875 188.582031 C 84.578125 199.027344 88.125 209.171875 93.117188 218.539062 C 94.316406 220.789062 95.601562 222.992188 96.964844 225.148438 C 97.894531 226.625 100.25 225.261719 99.3125 223.777344 C 93.777344 215.011719 89.59375 205.445312 86.976562 195.414062 C 84.359375 185.378906 83.347656 175.140625 83.851562 164.871094 C 84.261719 156.523438 85.722656 148.246094 88.179688 140.257812 C 90.582031 132.464844 93.941406 124.988281 98.15625 118.007812 C 102.300781 111.140625 107.257812 104.789062 112.90625 99.09375 C 118.554688 93.398438 124.863281 88.386719 131.695312 84.1875 C 138.527344 79.984375 146.078125 76.492188 153.84375 74.027344 C 161.796875 71.503906 170.050781 69.972656 178.382812 69.492188 C 188.445312 68.910156 198.574219 69.796875 208.367188 72.199219 C 218.28125 74.625 227.785156 78.566406 236.511719 83.863281 C 238.609375 85.136719 240.664062 86.488281 242.671875 87.910156 C 243.269531 88.335938 244.183594 88.015625 244.53125 87.421875 C 244.929688 86.742188 244.644531 85.988281 244.042969 85.558594 Z M 244.042969 85.558594 " fill-opacity="1" fill-rule="nonzero"/></g><path fill="#b47625" d="M 264.339844 104.640625 C 271.539062 112.398438 277.507812 121.253906 281.96875 130.859375 C 286.207031 139.988281 289.054688 149.808594 290.371094 159.789062 C 291.691406 169.785156 291.527344 180.007812 289.835938 189.949219 C 288.132812 199.949219 284.949219 209.695312 280.34375 218.742188 C 275.585938 228.089844 269.371094 236.652344 261.972656 244.085938 C 261.03125 245.03125 260.066406 245.957031 259.089844 246.867188 C 257.808594 248.066406 259.734375 249.984375 261.015625 248.792969 C 268.921875 241.425781 275.695312 232.835938 280.949219 223.390625 C 286.019531 214.273438 289.699219 204.371094 291.804688 194.152344 C 293.890625 184.03125 294.480469 173.597656 293.488281 163.308594 C 292.492188 152.925781 289.960938 142.726562 285.914062 133.113281 C 281.722656 123.144531 275.984375 113.898438 268.933594 105.703125 C 268.0625 104.691406 267.167969 103.695312 266.261719 102.714844 C 265.070312 101.429688 263.148438 103.355469 264.339844 104.640625 Z M 264.339844 104.640625 " fill-opacity="1" fill-rule="nonzero"/><g clip-path="url(#f7ccbbaf40)"><path fill="#b47625" d="M 177.136719 70.65625 C 156.6875 73.394531 137.421875 82.136719 121.980469 95.839844 C 108.742188 107.582031 98.648438 122.679688 92.875 139.410156 C 87.335938 155.46875 85.894531 172.820312 88.554688 189.585938 C 91.265625 206.628906 98.347656 222.835938 108.921875 236.460938 C 121.246094 252.34375 138.117188 264.4375 157.144531 270.941406 C 159.46875 271.738281 161.824219 272.445312 164.199219 273.074219 C 165.894531 273.523438 166.617188 270.898438 164.921875 270.453125 C 145.671875 265.355469 128.277344 254.59375 115.09375 239.671875 C 103.890625 226.992188 96.03125 211.542969 92.355469 195.035156 C 88.769531 178.949219 89.230469 162.023438 93.632812 146.144531 C 98.136719 129.890625 106.769531 114.914062 118.558594 102.855469 C 132.53125 88.558594 150.589844 78.621094 170.175781 74.566406 C 172.480469 74.089844 174.800781 73.6875 177.132812 73.375 C 177.867188 73.277344 178.484375 72.820312 178.492188 72.015625 C 178.5 71.355469 177.863281 70.558594 177.132812 70.65625 Z M 177.136719 70.65625 " fill-opacity="1" fill-rule="nonzero"/></g><g fill="#b47625" fill-opacity="1"><g transform="translate(106.945498, 169.656722)"><g><path d="M 43.121094 -41.441406 C 42 -41.441406 40.828125 -41.339844 39.65625 -41.082031 C 36.546875 -40.523438 33.589844 -39.300781 29.972656 -37.058594 C 29.714844 -36.902344 29.460938 -36.800781 29.257812 -36.800781 C 29.15625 -36.800781 29.003906 -36.851562 28.800781 -36.953125 C 26.453125 -38.332031 23.90625 -39.402344 21.152344 -40.0625 C 19.371094 -40.523438 17.535156 -40.726562 15.648438 -40.726562 C 12.742188 -40.726562 10.09375 -40.269531 7.59375 -39.351562 C 4.585938 -38.28125 1.886719 -36.140625 0.304688 -33.488281 C -0.714844 -31.859375 -1.222656 -30.175781 -1.222656 -28.492188 C -1.222656 -27.523438 -1.019531 -26.503906 -0.664062 -25.484375 C 0 -23.90625 0.765625 -22.582031 1.734375 -21.5625 C 3.515625 -19.523438 5.964844 -17.839844 8.972656 -16.464844 C 7.695312 -14.527344 6.472656 -12.488281 5.25 -10.398438 C 3.976562 -8.15625 2.90625 -5.914062 2.089844 -3.722656 C 0.253906 1.121094 -0.714844 4.535156 -0.714844 8.257812 C -0.714844 10.804688 -0.101562 12.945312 1.070312 14.628906 C 2.242188 16.15625 3.773438 17.074219 5.605469 17.382812 C 6.574219 17.585938 7.492188 17.6875 8.460938 17.6875 C 9.226562 17.6875 9.886719 17.636719 10.550781 17.535156 C 12.234375 17.28125 13.761719 16.667969 15.085938 15.75 C 17.890625 13.863281 20.441406 12.03125 22.683594 10.246094 C 26.300781 7.339844 29.359375 4.382812 31.550781 0.507812 L 31.601562 0.355469 C 32.773438 -1.527344 33.335938 -2.855469 33.285156 -4.484375 C 33.234375 -4.945312 33.082031 -5.402344 32.824219 -5.8125 C 32.113281 -6.726562 31.195312 -7.1875 30.023438 -7.1875 C 29.054688 -7.1875 28.289062 -6.675781 27.625 -5.605469 C 28.289062 -5.761719 29.105469 -5.761719 30.074219 -5.707031 C 30.175781 -5.65625 30.328125 -5.65625 30.582031 -5.65625 C 30.839844 -5.554688 31.042969 -5.503906 31.09375 -5.453125 C 31.449219 -5.199219 31.703125 -4.792969 31.753906 -4.230469 C 31.804688 -3.058594 31.398438 -1.785156 30.53125 -0.457031 C 29.714844 0.816406 28.238281 2.394531 27.984375 2.753906 C 24.925781 6.421875 21.460938 9.53125 17.585938 12.03125 C 15.597656 13.304688 13.964844 14.273438 12.589844 14.933594 C 11.265625 15.597656 9.785156 15.902344 8.15625 15.902344 C 7.035156 15.902344 6.015625 15.75 5.097656 15.445312 C 4.535156 15.292969 3.925781 14.78125 3.261719 14.015625 C 2.496094 12.84375 2.089844 11.46875 2.089844 9.886719 C 2.089844 9.074219 2.191406 8.003906 2.445312 6.625 C 3.160156 2.957031 4.433594 -0.765625 6.21875 -4.585938 C 7.902344 -8.105469 9.941406 -11.46875 12.335938 -14.730469 C 12.488281 -14.984375 13.050781 -15.191406 13.40625 -15.140625 L 14.679688 -14.984375 L 15.953125 -14.78125 L 17.28125 -14.628906 L 18.605469 -14.425781 C 19.675781 -14.324219 20.746094 -14.273438 21.714844 -14.273438 C 24.722656 -14.273438 27.730469 -14.679688 30.632812 -15.445312 C 34.101562 -16.414062 37.3125 -17.941406 40.21875 -20.03125 C 43.171875 -22.121094 45.519531 -24.3125 47.300781 -26.503906 C 49.699219 -29.511719 51.175781 -32.722656 51.175781 -35.375 C 51.175781 -36.34375 51.023438 -37.160156 50.667969 -37.871094 C 49.238281 -40.523438 46.179688 -41.441406 43.121094 -41.441406 Z M 34.101562 -30.125 C 34.253906 -30.277344 34.40625 -30.53125 34.609375 -30.890625 C 34.761719 -31.246094 34.558594 -31.910156 33.949219 -32.773438 L 32.570312 -34.40625 C 32.722656 -34.558594 32.824219 -34.609375 32.929688 -34.660156 C 35.121094 -36.039062 37.109375 -37.003906 38.890625 -37.617188 C 41.238281 -38.484375 43.273438 -38.890625 44.957031 -38.890625 C 47.351562 -38.890625 48.78125 -37.972656 49.1875 -36.191406 C 49.238281 -36.039062 49.238281 -35.832031 49.238281 -35.476562 C 49.238281 -34.914062 49.136719 -34.304688 48.933594 -33.539062 C 48.269531 -31.5 47.300781 -29.664062 46.027344 -27.984375 C 44.652344 -26.199219 42.867188 -24.464844 40.625 -22.785156 C 38.433594 -21.101562 36.089844 -19.675781 33.691406 -18.605469 C 29.769531 -16.921875 25.691406 -16.054688 21.460938 -16.054688 C 19.0625 -16.054688 16.515625 -16.3125 13.914062 -16.871094 C 19.472656 -24.007812 24.722656 -29.207031 30.992188 -33.285156 L 31.296875 -33.03125 L 32.367188 -31.960938 L 32.824219 -31.398438 C 32.929688 -31.144531 33.03125 -30.890625 33.183594 -30.734375 L 33.589844 -30.125 L 33.84375 -29.769531 Z M 2.394531 -24.109375 C 1.683594 -25.332031 1.324219 -26.605469 1.324219 -27.984375 C 1.324219 -30.582031 2.652344 -33.234375 5.046875 -35.121094 C 7.851562 -37.363281 10.855469 -38.179688 14.679688 -38.636719 C 14.832031 -38.6875 15.035156 -38.6875 15.34375 -38.6875 L 16.003906 -38.6875 C 17.738281 -38.6875 19.625 -38.433594 21.664062 -37.921875 C 24.261719 -37.261719 26.25 -36.445312 27.679688 -35.476562 C 22.988281 -32.417969 18.707031 -28.441406 13.761719 -22.582031 C 12.539062 -21.101562 11.46875 -19.777344 10.550781 -18.503906 C 10.296875 -18.195312 10.09375 -18.042969 9.886719 -18.042969 C 9.835938 -18.042969 9.683594 -18.09375 9.429688 -18.144531 C 6.21875 -19.625 3.875 -21.613281 2.394531 -24.109375 Z M 2.394531 -24.109375 "/></g></g></g><g fill="#b47625" fill-opacity="1"><g transform="translate(142.367765, 169.656722)"><g><path d="M 9.328125 9.785156 C 9.175781 9.785156 9.023438 9.632812 9.023438 9.378906 C 8.816406 7.953125 9.53125 6.933594 11.417969 4.28125 L 13.457031 1.375 L 14.324219 0.152344 C 16.515625 -3.007812 17.890625 -4.996094 18.402344 -5.8125 C 18.65625 -6.269531 18.808594 -6.777344 18.808594 -7.238281 C 18.808594 -7.695312 18.554688 -8.15625 18.042969 -8.511719 C 17.6875 -8.765625 17.332031 -8.921875 17.023438 -8.921875 C 16.617188 -8.921875 16.054688 -8.664062 15.394531 -8.105469 L 14.578125 -7.339844 L 13.660156 -6.523438 C 13.050781 -8.765625 11.417969 -10.246094 9.328125 -10.246094 C 9.074219 -10.246094 8.816406 -10.246094 8.664062 -10.195312 C 6.371094 -9.941406 4.078125 -8.207031 2.191406 -5.707031 C 0.355469 -3.3125 -0.867188 -0.507812 -0.867188 1.683594 C -0.867188 2.445312 -0.664062 3.058594 -0.304688 3.515625 C 0.355469 4.484375 1.425781 5.046875 2.496094 5.046875 C 3.722656 5.046875 4.6875 4.332031 5.863281 2.90625 L 7.136719 1.582031 L 9.734375 -1.121094 L 13.558594 -5.097656 C 13.914062 -5.453125 14.324219 -5.8125 14.730469 -6.117188 L 15.953125 -6.984375 L 16.054688 -6.882812 L 16.15625 -6.726562 L 14.121094 -3.976562 C 11.671875 -0.613281 9.941406 1.835938 8.972656 3.414062 C 8.410156 4.28125 7.953125 5.453125 7.492188 6.933594 C 7.441406 7.289062 7.390625 7.492188 7.390625 7.644531 C 7.390625 8.308594 7.59375 8.921875 8.003906 9.582031 C 8.460938 10.246094 9.023438 10.601562 9.785156 10.601562 C 10.957031 10.601562 11.519531 10.042969 12.792969 8.765625 L 24.515625 -2.957031 C 24.3125 -3.160156 24.058594 -3.261719 23.804688 -3.261719 C 23.652344 -3.261719 23.445312 -3.210938 23.242188 -3.109375 C 22.683594 -2.90625 22.324219 -2.394531 22.171875 -2.242188 L 18.351562 1.632812 L 16.15625 3.773438 C 15.292969 4.636719 14.730469 5.199219 14.425781 5.453125 L 13.355469 6.574219 C 13.101562 6.882812 12.742188 7.289062 12.234375 7.796875 C 11.316406 8.714844 10.449219 9.328125 9.632812 9.683594 C 9.582031 9.734375 9.53125 9.734375 9.480469 9.734375 C 9.429688 9.785156 9.378906 9.785156 9.328125 9.785156 Z M 1.019531 2.445312 C 1.019531 2.191406 1.070312 1.9375 1.171875 1.632812 C 2.191406 -1.425781 3.875 -3.464844 7.085938 -6.933594 C 8.15625 -8.105469 8.921875 -8.765625 9.941406 -8.765625 C 9.992188 -8.765625 10.195312 -8.714844 10.449219 -8.664062 C 10.804688 -8.5625 11.0625 -8.410156 11.214844 -8.15625 C 11.46875 -7.902344 11.773438 -7.289062 12.03125 -6.320312 C 12.082031 -6.015625 12.132812 -5.707031 12.285156 -5.402344 L 12.285156 -5.351562 C 12.285156 -5.199219 12.183594 -5.046875 11.976562 -4.84375 C 11.214844 -4.078125 10.042969 -2.855469 8.5625 -1.222656 L 5.046875 2.394531 C 4.585938 2.855469 4.179688 3.160156 3.824219 3.363281 L 2.445312 4.179688 C 1.582031 3.976562 1.019531 3.3125 1.019531 2.445312 Z M 1.019531 2.445312 "/></g></g></g><g fill="#b47625" fill-opacity="1"><g transform="translate(163.213391, 169.656722)"><g><path d="M -0.203125 6.574219 C -0.152344 6.523438 -0.101562 6.421875 -0.101562 6.320312 L 0 6.117188 L 4.6875 -1.222656 L 9.378906 -8.511719 L 9.785156 -8.972656 L 10.296875 -9.429688 L 15.34375 -14.121094 C 16.820312 -15.496094 18.503906 -17.074219 20.285156 -18.859375 C 22.324219 -20.898438 23.90625 -23.445312 25.078125 -26.503906 C 25.230469 -26.964844 25.332031 -27.320312 25.332031 -27.625 C 25.332031 -28.035156 25.230469 -28.339844 25.027344 -28.59375 C 24.773438 -28.953125 24.261719 -29.15625 23.601562 -29.15625 C 22.835938 -29.15625 21.96875 -28.902344 21.050781 -28.339844 C 19.828125 -27.472656 18.65625 -26.402344 17.535156 -25.078125 L 16.105469 -23.394531 C 14.730469 -21.816406 12.742188 -19.265625 10.246094 -15.800781 C 7.238281 -11.570312 4.433594 -7.136719 1.835938 -2.445312 L 1.171875 -1.222656 C -0.101562 1.070312 -1.121094 3.058594 -1.886719 4.6875 L -2.804688 6.523438 L -5.605469 11.925781 C -5.8125 12.285156 -5.914062 12.589844 -5.914062 12.84375 C -5.914062 13.304688 -5.554688 13.507812 -4.6875 13.660156 L 6.320312 1.734375 C 6.371094 1.886719 6.421875 2.039062 6.421875 2.242188 C 6.421875 2.445312 6.371094 2.597656 6.320312 2.703125 L 4.894531 5.964844 C 3.363281 9.226562 2.191406 11.621094 1.375 13.203125 C 0.613281 14.578125 -0.0507812 15.902344 -0.5625 17.175781 C -0.96875 18.09375 -1.324219 19.523438 -1.683594 21.410156 C -1.734375 21.511719 -1.734375 21.664062 -1.734375 21.816406 C -1.734375 22.582031 -1.273438 23.191406 -0.40625 23.703125 C -0.152344 23.855469 0.0507812 23.90625 0.304688 23.90625 C 0.867188 23.90625 1.425781 23.292969 1.632812 23.140625 C 2.292969 22.53125 2.753906 22.070312 2.957031 21.765625 C 5.65625 17.890625 7.851562 14.679688 9.582031 12.132812 L 13.355469 6.574219 C 14.375 5.199219 15.445312 3.824219 16.566406 2.546875 C 19.472656 -0.816406 22.425781 -3.363281 25.484375 -5.148438 C 25.792969 -5.300781 25.996094 -5.554688 26.148438 -5.914062 C 26.300781 -6.21875 26.453125 -6.523438 26.710938 -6.777344 C 24.414062 -5.65625 22.222656 -4.28125 20.183594 -2.652344 C 18.605469 -1.375 17.175781 0.0507812 15.902344 1.683594 C 14.628906 3.363281 12.996094 5.605469 11.0625 8.410156 L 10.042969 9.941406 C 8.613281 12.132812 6.984375 14.476562 5.148438 17.023438 C 4.484375 17.992188 3.773438 18.910156 3.007812 19.777344 C 2.546875 20.335938 2.039062 20.898438 1.582031 21.511719 L 0.765625 22.480469 L 0.507812 22.273438 L 0.253906 22.121094 L 1.324219 19.878906 L 2.34375 17.636719 L 4.636719 13.507812 C 5.605469 11.875 6.320312 10.5 6.832031 9.378906 C 7.695312 7.59375 8.257812 6.167969 8.5625 5.097656 C 8.765625 4.332031 8.867188 3.566406 8.867188 2.753906 C 8.867188 1.988281 8.765625 1.171875 8.5625 0.355469 L 9.683594 -0.101562 C 10.042969 -0.203125 10.398438 -0.355469 10.753906 -0.5625 L 11.621094 -1.070312 C 12.742188 -1.734375 13.660156 -2.292969 14.425781 -2.855469 C 15.035156 -3.3125 15.34375 -3.773438 15.34375 -4.332031 C 15.34375 -4.585938 15.242188 -4.894531 15.035156 -5.199219 C 14.679688 -5.65625 14.273438 -5.863281 13.8125 -5.863281 C 13.457031 -5.863281 12.945312 -5.707031 12.386719 -5.351562 L 12.03125 -5.097656 L 11.671875 -4.792969 L 9.023438 -2.445312 C 7.339844 -0.96875 5.402344 0.96875 3.210938 3.3125 L 0 6.675781 Z M 19.0625 -19.371094 C 17.535156 -17.636719 15.242188 -15.445312 12.183594 -12.742188 L 12.082031 -12.84375 L 23.601562 -27.730469 C 23.652344 -27.679688 23.703125 -27.679688 23.753906 -27.679688 L 23.855469 -27.625 C 22.988281 -24.875 21.410156 -22.121094 19.0625 -19.371094 Z M 13.457031 -4.636719 C 12.84375 -3.058594 11.46875 -1.9375 9.378906 -1.324219 C 9.886719 -1.683594 10.601562 -2.242188 11.46875 -3.007812 Z M 13.457031 -4.636719 "/></g></g></g><g fill="#b47625" fill-opacity="1"><g transform="translate(183.702245, 169.656722)"><g><path d="M 13.101562 -2.34375 L 9.835938 0.867188 C 7.542969 3.007812 4.996094 4.996094 2.191406 6.832031 C 2.140625 6.882812 2.089844 6.882812 1.988281 6.882812 C 1.9375 6.882812 1.835938 6.726562 1.785156 6.421875 L 1.785156 6.015625 C 1.785156 5.554688 1.785156 5.148438 1.835938 4.894531 C 1.988281 3.671875 2.140625 2.546875 2.34375 1.9375 L 2.90625 0.457031 L 3.617188 -1.273438 C 4.230469 -2.703125 4.792969 -3.671875 5.351562 -4.230469 C 5.605469 -4.128906 5.914062 -4.078125 6.21875 -4.078125 C 7.59375 -4.078125 9.125 -4.742188 10.855469 -6.117188 C 11.0625 -6.21875 11.265625 -6.472656 11.417969 -6.832031 C 11.671875 -7.492188 11.824219 -8.105469 11.824219 -8.714844 C 11.824219 -9.023438 11.773438 -9.226562 11.671875 -9.378906 C 11.316406 -9.835938 10.703125 -10.09375 9.835938 -10.09375 C 9.175781 -10.09375 8.511719 -9.941406 7.902344 -9.683594 C 7.441406 -9.480469 6.984375 -9.175781 6.523438 -8.816406 C 5.046875 -7.796875 3.617188 -6.269531 2.292969 -4.230469 C 1.222656 -2.496094 0.355469 -0.304688 -0.253906 2.394531 C -0.40625 3.160156 -0.507812 3.875 -0.507812 4.636719 C -0.507812 6.625 0.101562 8.003906 1.527344 8.003906 C 3.007812 8.003906 5.25 6.726562 7.289062 4.894531 C 9.277344 3.058594 11.671875 0.457031 13.863281 -1.988281 C 14.984375 -3.261719 16.261719 -4.484375 17.6875 -5.65625 C 17.636719 -5.707031 17.433594 -5.8125 17.175781 -5.863281 C 16.871094 -5.914062 16.71875 -5.964844 16.667969 -6.015625 Z M 10.246094 -8.105469 C 10.246094 -7.695312 9.941406 -7.238281 9.277344 -6.777344 C 8.613281 -6.320312 8.054688 -6.066406 7.59375 -6.066406 C 7.390625 -6.066406 7.238281 -6.117188 7.136719 -6.21875 C 7.085938 -6.832031 7.542969 -7.492188 8.207031 -8.054688 C 8.714844 -8.460938 9.175781 -8.664062 9.632812 -8.664062 C 9.785156 -8.664062 9.886719 -8.613281 10.042969 -8.5625 C 10.195312 -8.410156 10.246094 -8.257812 10.246094 -8.105469 Z M 10.246094 -8.105469 "/></g></g></g><g fill="#b47625" fill-opacity="1"><g transform="translate(195.985363, 169.656722)"><g><path d="M 34.8125 -35.019531 C 34.253906 -34.761719 33.742188 -34.457031 33.234375 -34.050781 C 31.960938 -32.980469 30.632812 -31.703125 29.15625 -30.125 C 26.863281 -27.625 24.773438 -24.976562 22.886719 -22.070312 C 21.050781 -19.214844 19.011719 -15.75 16.769531 -11.671875 C 16.15625 -10.601562 15.394531 -9.683594 14.527344 -8.972656 C 13.660156 -8.257812 12.792969 -7.441406 11.976562 -6.574219 C 11.722656 -7.136719 11.367188 -7.644531 10.90625 -8.105469 C 9.992188 -8.921875 8.921875 -9.328125 7.644531 -9.328125 C 7.085938 -9.328125 6.523438 -9.175781 5.914062 -8.921875 C 2.191406 -7.035156 0.152344 -3.875 -0.203125 0.613281 C -0.355469 1.734375 0.203125 2.597656 1.476562 3.261719 C 1.785156 3.414062 2.140625 3.515625 2.546875 3.515625 C 3.109375 3.515625 3.617188 3.3125 4.179688 2.855469 C 4.996094 2.242188 5.707031 1.582031 6.371094 0.816406 L 9.734375 -2.753906 L 13.050781 -6.320312 C 13.203125 -6.523438 13.40625 -6.726562 13.609375 -6.882812 L 14.222656 -7.390625 C 14.171875 -7.035156 14.066406 -6.574219 13.863281 -6.117188 L 13.304688 -4.945312 L 11.621094 -1.683594 C 10.957031 -0.40625 10.195312 1.121094 9.429688 2.804688 C 7.796875 6.472656 6.882812 9.226562 6.882812 12.335938 C 6.882812 13.710938 7.289062 14.527344 8.460938 15.140625 C 8.921875 15.34375 9.378906 15.445312 9.734375 15.445312 C 10.398438 15.445312 11.011719 15.140625 11.671875 14.578125 L 12.4375 13.863281 C 12.640625 13.660156 14.273438 12.335938 15.140625 10.957031 C 15.546875 10.5 15.953125 9.886719 16.414062 9.277344 C 17.789062 7.441406 19.164062 5.605469 20.492188 3.722656 L 23.292969 -0.101562 L 25.742188 -3.515625 C 25.894531 -3.773438 26.097656 -4.128906 26.300781 -4.585938 C 26.046875 -4.742188 25.792969 -4.84375 25.535156 -4.84375 C 25.078125 -4.84375 24.875 -4.585938 24.414062 -3.976562 L 20.335938 1.683594 L 16.210938 7.289062 C 15.445312 8.308594 14.527344 9.378906 13.558594 10.449219 L 11.722656 12.4375 L 10.652344 13.558594 C 10.449219 13.8125 10.195312 13.964844 9.835938 14.066406 L 8.613281 14.628906 C 8.664062 13.8125 8.714844 13.253906 8.714844 12.996094 L 8.714844 12.640625 C 8.714844 12.285156 8.765625 11.976562 8.867188 11.722656 L 10.296875 7.542969 C 10.753906 6.167969 11.316406 4.84375 11.976562 3.566406 C 14.882812 -1.785156 17.992188 -7.289062 21.410156 -13.050781 C 21.664062 -13.457031 21.96875 -13.914062 22.425781 -14.425781 L 23.550781 -15.648438 L 28.851562 -20.949219 C 30.734375 -22.785156 32.46875 -24.570312 34.050781 -26.351562 C 35.324219 -27.730469 36.699219 -29.769531 38.179688 -32.519531 C 38.636719 -33.285156 38.839844 -33.84375 38.839844 -34.304688 C 38.839844 -35.121094 38.332031 -35.324219 36.699219 -35.882812 L 36.445312 -35.882812 C 35.527344 -35.375 34.96875 -35.070312 34.8125 -35.019531 Z M 6.320312 -5.503906 C 7.085938 -6.167969 7.796875 -6.625 8.410156 -6.984375 C 8.664062 -7.136719 8.867188 -7.1875 9.125 -7.1875 C 9.734375 -7.1875 10.042969 -6.625 10.042969 -5.8125 C 10.042969 -4.945312 9.632812 -3.976562 8.972656 -3.363281 L 6.984375 -1.273438 C 6.117188 -0.304688 5.402344 0.355469 4.945312 0.816406 C 4.585938 1.171875 4.230469 1.476562 3.773438 1.734375 L 2.546875 2.597656 L 2.140625 2.191406 C 2.804688 -1.019531 4.179688 -3.566406 6.320312 -5.503906 Z M 34.8125 -29.410156 C 33.234375 -27.015625 31.09375 -24.464844 28.339844 -21.867188 L 24.875 -18.351562 L 27.523438 -22.582031 C 28.289062 -23.753906 29.207031 -25.078125 30.328125 -26.660156 C 32.46875 -29.5625 34.710938 -32.011719 37.058594 -33.949219 C 36.496094 -32.367188 35.78125 -30.839844 34.8125 -29.410156 Z M 34.8125 -29.410156 "/></g></g></g><g fill="#b47625" fill-opacity="1"><g transform="translate(217.289691, 169.656722)"><g/></g></g><g fill="#b47625" fill-opacity="1"><g transform="translate(225.342519, 169.656722)"><g><path d="M 12.488281 -5.65625 C 12.742188 -5.761719 13.101562 -5.964844 13.558594 -6.21875 C 13.8125 -6.421875 14.066406 -6.472656 14.273438 -6.320312 C 14.425781 -6.21875 14.527344 -6.015625 14.527344 -5.761719 C 14.527344 -5.65625 14.476562 -5.351562 14.324219 -4.894531 C 13.863281 -3.617188 12.996094 -1.988281 11.773438 0 L 10.855469 1.527344 C 9.023438 4.636719 7.238281 6.984375 4.792969 8.613281 C 4.332031 8.921875 3.773438 9.480469 3.007812 10.296875 C 2.855469 10.5 1.734375 11.722656 1.324219 12.742188 C 1.222656 12.894531 1.171875 13.152344 1.171875 13.40625 C 1.171875 13.863281 1.273438 14.222656 1.527344 14.476562 C 1.785156 14.730469 2.191406 14.882812 2.753906 14.882812 C 2.90625 14.882812 3.109375 14.832031 3.3125 14.78125 C 3.875 14.527344 4.636719 13.964844 5.65625 13.101562 C 8.15625 10.601562 10.550781 7.390625 12.84375 3.414062 C 13.40625 2.496094 14.171875 1.683594 15.191406 0.96875 C 16.15625 0.253906 17.175781 -0.355469 18.195312 -0.917969 C 19.214844 -1.425781 20.234375 -2.089844 21.203125 -2.855469 L 20.898438 -3.210938 L 14.78125 -0.0507812 L 15.800781 -3.566406 C 15.902344 -3.925781 15.953125 -4.28125 15.953125 -4.636719 C 15.953125 -5.605469 15.546875 -6.421875 14.933594 -6.832031 C 14.578125 -7.085938 14.171875 -7.1875 13.710938 -7.1875 C 13.050781 -7.1875 12.183594 -6.777344 11.164062 -5.964844 C 7.746094 -2.957031 4.894531 0.152344 2.597656 3.3125 C 2.34375 3.566406 2.191406 3.671875 2.039062 3.617188 C 3.058594 0.613281 4.84375 -2.445312 7.339844 -5.65625 C 8.765625 -7.492188 11.113281 -10.195312 14.375 -13.8125 C 17.332031 -17.230469 19.726562 -20.132812 21.511719 -22.53125 L 23.191406 -24.824219 C 23.550781 -25.28125 24.109375 -26.046875 24.773438 -27.066406 L 25.382812 -27.933594 C 25.84375 -28.59375 26.046875 -29.15625 26.046875 -29.613281 C 26.046875 -30.277344 25.078125 -31.347656 24.210938 -31.347656 C 23.753906 -31.347656 23.242188 -31.195312 22.785156 -30.941406 C 20.183594 -29.359375 17.789062 -27.21875 15.546875 -24.414062 C 13.964844 -22.425781 12.082031 -19.726562 9.886719 -16.261719 C 9.480469 -15.597656 9.175781 -15.085938 8.921875 -14.78125 C 6.167969 -10.398438 4.28125 -7.289062 3.3125 -5.453125 C 1.121094 -1.324219 -0.457031 2.597656 -1.375 6.320312 C -1.476562 6.675781 -1.527344 7.035156 -1.527344 7.289062 C -1.527344 8.054688 -1.171875 8.460938 -0.152344 8.816406 L 2.191406 5.402344 C 3.976562 2.957031 5.503906 0.917969 6.882812 -0.664062 C 8.257812 -2.242188 9.734375 -3.722656 11.417969 -4.996094 Z M 24.824219 -29.410156 C 24.824219 -29.15625 24.722656 -28.851562 24.464844 -28.492188 C 24.210938 -28.1875 23.753906 -27.421875 22.988281 -26.199219 L 22.171875 -25.027344 L 20.441406 -22.886719 L 18.65625 -20.746094 C 16.566406 -18.144531 14.222656 -15.242188 11.621094 -12.132812 C 10.804688 -11.011719 9.785156 -9.886719 8.5625 -8.714844 L 12.082031 -14.425781 C 13.304688 -16.464844 14.476562 -18.351562 15.597656 -20.03125 C 18.402344 -24.210938 21.304688 -27.523438 24.363281 -30.023438 L 24.464844 -30.074219 C 24.621094 -30.074219 24.773438 -29.921875 24.824219 -29.5625 Z M 3.722656 10.957031 C 4.84375 9.582031 6.015625 8.5625 7.289062 7.796875 L 6.269531 9.683594 C 5.914062 10.347656 5.503906 10.90625 5.148438 11.417969 C 4.179688 12.742188 3.109375 13.660156 2.039062 14.222656 C 2.039062 13.40625 2.597656 12.335938 3.722656 10.957031 Z M 3.722656 10.957031 "/></g></g></g><g fill="#b47625" fill-opacity="1"><g transform="translate(243.639768, 169.656722)"><g><path d="M 11.367188 -11.824219 L 10.449219 -10.09375 L 7.492188 -5.046875 C 6.21875 -2.804688 5.25 -1.121094 4.636719 0.0507812 C 4.078125 1.121094 3.671875 2.34375 3.414062 3.824219 C 3.363281 3.925781 3.363281 4.078125 3.363281 4.332031 C 3.363281 5.199219 3.773438 5.761719 4.585938 6.117188 C 4.84375 6.269531 5.046875 6.320312 5.300781 6.320312 C 5.761719 6.320312 6.269531 5.863281 6.675781 5.453125 C 8.003906 4.128906 8.972656 3.109375 9.632812 2.394531 L 13.203125 -1.785156 L 16.769531 -5.914062 C 17.175781 -6.371094 17.636719 -6.832031 18.09375 -7.238281 L 19.523438 -8.460938 L 19.777344 -8.257812 C 18.65625 -5.65625 17.585938 -3.261719 16.515625 -1.121094 C 15.496094 1.019531 14.222656 3.363281 12.691406 5.863281 C 12.4375 6.167969 11.925781 6.675781 11.113281 7.390625 L 8.105469 10.09375 L 6.984375 11.113281 L 4.078125 13.761719 C 2.652344 15.085938 1.375 16.3125 0.304688 17.382812 C -2.546875 20.234375 -4.382812 22.425781 -5.199219 23.957031 C -5.453125 24.414062 -5.554688 24.925781 -5.554688 25.484375 C -5.554688 26.046875 -5.351562 26.503906 -4.945312 26.964844 C -4.179688 27.730469 -3.3125 28.085938 -2.34375 28.085938 C -1.019531 28.085938 0.253906 27.472656 1.476562 26.25 C 3.773438 23.957031 5.554688 21.765625 6.726562 19.777344 C 7.390625 19.113281 8.003906 18.402344 8.5625 17.535156 C 9.277344 16.515625 10.296875 14.78125 11.671875 12.386719 L 14.425781 7.796875 C 15.902344 5.402344 17.125 3.773438 18.195312 2.90625 C 19.164062 2.191406 20.898438 0.816406 23.34375 -1.222656 C 25.382812 -2.90625 27.066406 -4.28125 28.441406 -5.300781 C 28.695312 -5.453125 28.953125 -5.8125 29.308594 -6.269531 L 30.074219 -7.289062 L 29.921875 -7.441406 L 29.714844 -7.59375 L 27.066406 -5.453125 L 24.058594 -2.957031 L 22.480469 -1.632812 C 20.492188 0 19.0625 1.121094 18.195312 1.785156 C 18.65625 0.613281 19.0625 -0.203125 19.371094 -0.765625 L 20.59375 -3.261719 C 21.460938 -5.25 21.96875 -7.085938 22.121094 -8.765625 C 22.171875 -9.53125 21.613281 -10.09375 20.949219 -10.09375 C 20.59375 -10.09375 20.335938 -9.992188 20.082031 -9.734375 L 18.402344 -8.15625 L 17.585938 -7.390625 C 15.800781 -5.707031 14.171875 -3.925781 12.742188 -2.089844 C 11.925781 -1.019531 11.113281 -0.0507812 10.246094 0.867188 C 8.207031 3.160156 6.371094 4.6875 4.792969 5.351562 L 5.707031 3.414062 C 5.914062 2.90625 6.21875 2.292969 6.675781 1.632812 C 8.054688 -0.816406 9.074219 -2.652344 9.785156 -3.824219 L 10.449219 -4.945312 C 12.691406 -8.664062 13.660156 -10.652344 13.863281 -12.742188 C 13.914062 -12.945312 13.914062 -13.203125 13.914062 -13.507812 C 13.914062 -14.324219 13.660156 -14.730469 13.152344 -14.730469 C 12.792969 -14.730469 12.386719 -14.628906 11.875 -14.375 L 9.023438 -11.417969 C 7.851562 -10.195312 7.035156 -9.277344 6.523438 -8.714844 C 4.894531 -6.832031 3.515625 -4.996094 2.394531 -3.160156 C 2.445312 -3.109375 2.445312 -3.058594 2.394531 -2.90625 L 2.089844 -1.835938 C 2.039062 -1.683594 2.039062 -1.582031 2.089844 -1.527344 C 6.21875 -7.492188 9.683594 -11.570312 12.386719 -13.761719 Z M 8.816406 12.792969 C 7.238281 15.191406 6.21875 16.769531 5.65625 17.535156 C 3.210938 21.152344 1.070312 23.804688 -1.425781 25.894531 C -1.988281 26.300781 -2.496094 26.503906 -2.957031 26.503906 C -3.3125 26.503906 -3.617188 26.402344 -3.824219 26.199219 C -4.078125 25.996094 -4.230469 25.691406 -4.230469 25.28125 C -4.230469 24.925781 -4.078125 24.464844 -3.773438 24.007812 C -2.804688 22.632812 -1.582031 21.203125 -0.101562 19.675781 C 2.191406 17.332031 5.097656 14.578125 8.613281 11.46875 C 9.835938 10.398438 11.011719 9.277344 12.132812 8.15625 C 10.957031 9.632812 9.886719 11.164062 8.816406 12.792969 Z M 8.816406 12.792969 "/></g></g></g><g fill="#b47625" fill-opacity="1"><g transform="translate(116.725006, 210.014588)"><g><path d="M 0.792969 -4.023438 L 7.605469 -4.023438 L 7.605469 -5.179688 L 0.792969 -5.179688 Z M 0.792969 -4.023438 "/></g></g></g><g fill="#b47625" fill-opacity="1"><g transform="translate(125.12143, 210.014588)"><g/></g></g><g fill="#b47625" fill-opacity="1"><g transform="translate(131.458353, 210.014588)"><g><path d="M 11.21875 -9.507812 L 11.21875 -1.394531 L 3.691406 -9.507812 L 1.964844 -9.507812 L 1.964844 0 L 3.265625 0 L 3.265625 -8.113281 L 10.773438 0 L 12.519531 0 L 12.519531 -9.507812 Z M 11.21875 -9.507812 "/></g></g></g><g fill="#b47625" fill-opacity="1"><g transform="translate(145.938221, 210.014588)"><g/></g></g><g fill="#b47625" fill-opacity="1"><g transform="translate(152.275144, 210.014588)"><g><path d="M 1.964844 0 L 3.265625 0 L 3.265625 -9.507812 L 1.964844 -9.507812 Z M 1.964844 0 "/></g></g></g><g fill="#b47625" fill-opacity="1"><g transform="translate(157.503106, 210.014588)"><g/></g></g><g fill="#b47625" fill-opacity="1"><g transform="translate(163.840029, 210.014588)"><g><path d="M 7.542969 0.160156 C 11.613281 0.160156 13.4375 -1.425781 13.738281 -3.566406 L 12.328125 -3.566406 C 12.011719 -2.058594 10.554688 -1.109375 7.542969 -1.109375 C 4.054688 -1.109375 2.597656 -2.410156 2.597656 -4.53125 L 2.597656 -5.007812 C 2.597656 -7.128906 4.054688 -8.429688 7.542969 -8.429688 C 10.347656 -8.429688 12.167969 -7.480469 12.34375 -6.085938 L 13.753906 -6.085938 C 13.609375 -8.128906 11.410156 -9.699219 7.542969 -9.699219 C 2.929688 -9.699219 1.269531 -7.652344 1.269531 -5.007812 L 1.269531 -4.53125 C 1.269531 -1.886719 2.929688 0.160156 7.542969 0.160156 Z M 7.542969 0.160156 "/></g></g></g><g fill="#b47625" fill-opacity="1"><g transform="translate(178.890216, 210.014588)"><g/></g></g><g fill="#b47625" fill-opacity="1"><g transform="translate(185.22714, 210.014588)"><g><path d="M 7.542969 0.160156 C 12.199219 0.160156 13.816406 -1.980469 13.816406 -4.46875 L 13.816406 -5.164062 C 13.816406 -7.734375 12.105469 -9.699219 7.542969 -9.699219 C 2.929688 -9.699219 1.269531 -7.652344 1.269531 -5.101562 L 1.269531 -4.40625 C 1.269531 -1.886719 2.929688 0.160156 7.542969 0.160156 Z M 7.542969 -1.109375 C 4.054688 -1.109375 2.597656 -2.410156 2.597656 -4.40625 L 2.597656 -5.101562 C 2.597656 -7.128906 4.054688 -8.429688 7.542969 -8.429688 C 10.964844 -8.429688 12.484375 -7.050781 12.484375 -5.007812 L 12.484375 -4.308594 C 12.484375 -2.359375 11.09375 -1.109375 7.542969 -1.109375 Z M 7.542969 -1.109375 "/></g></g></g><g fill="#b47625" fill-opacity="1"><g transform="translate(200.309012, 210.014588)"><g/></g></g><g fill="#b47625" fill-opacity="1"><g transform="translate(206.645935, 210.014588)"><g><path d="M 3.25 -9.507812 L 1.949219 -9.507812 L 1.949219 0 L 11.171875 0 L 11.171875 -1.203125 L 3.25 -1.203125 Z M 3.25 -9.507812 "/></g></g></g><g fill="#b47625" fill-opacity="1"><g transform="translate(218.448448, 210.014588)"><g/></g></g><g fill="#b47625" fill-opacity="1"><g transform="translate(224.785372, 210.014588)"><g><path d="M 11.664062 -8.351562 L 11.664062 -9.507812 L 1.964844 -9.507812 L 1.964844 0 L 11.664062 0 L 11.664062 -1.15625 L 3.265625 -1.15625 L 3.265625 -4.054688 L 10.839844 -4.054688 L 10.839844 -5.214844 L 3.265625 -5.214844 L 3.265625 -8.351562 Z M 11.664062 -8.351562 "/></g></g></g><g fill="#b47625" fill-opacity="1"><g transform="translate(237.411691, 210.014588)"><g/></g></g><g fill="#b47625" fill-opacity="1"><g transform="translate(243.748615, 210.014588)"><g><path d="M 0.792969 -4.023438 L 7.605469 -4.023438 L 7.605469 -5.179688 L 0.792969 -5.179688 Z M 0.792969 -4.023438 "/></g></g></g><g fill="#b47625" fill-opacity="1"><g transform="translate(252.149697, 210.014588)"><g/></g></g><path fill="#fbe2ed" d="M 202.421875 111.707031 C 202.335938 108.65625 202.507812 106.976562 201.519531 106.203125 C 201.160156 105.921875 200.058594 105.789062 198.804688 105.730469 C 198.992188 104.941406 199.117188 103.554688 198.9375 101.128906 C 198.550781 95.878906 199.109375 94.847656 198.894531 94.371094 C 198.726562 94.007812 194.378906 93.210938 190.792969 92.902344 C 190.996094 91.722656 191.3125 89.648438 191.191406 88.695312 C 191.023438 87.316406 189.128906 84.992188 189.128906 84.992188 C 189.128906 84.992188 187.664062 86.457031 187.496094 88.824219 C 187.378906 90.410156 188.71875 91.957031 189.660156 92.820312 C 189.027344 92.785156 188.433594 92.769531 187.925781 92.777344 C 184.441406 92.867188 179.96875 92.5625 179.0625 93.421875 C 178.570312 93.71875 178.320312 94.074219 178.183594 94.558594 C 178.125 94.6875 178.121094 94.757812 178.121094 94.757812 C 178.117188 94.789062 178.117188 94.820312 178.109375 94.851562 C 178.007812 95.382812 177.980469 96.058594 177.902344 96.949219 C 177.734375 98.929688 178.675781 106.242188 178.675781 106.242188 C 178.675781 106.242188 176.828125 106.113281 176.097656 107.320312 C 175.367188 108.523438 175.925781 113.085938 176.054688 114.03125 C 176.183594 114.972656 175.925781 117.429688 177.558594 118.546875 C 178.515625 119.199219 193.863281 117.773438 195.242188 117.902344 C 196.617188 118.03125 199.84375 118.203125 201.089844 117.46875 C 202.335938 116.742188 202.507812 114.761719 202.421875 111.707031 Z M 202.421875 111.707031 " fill-opacity="1" fill-rule="nonzero"/><g clip-path="url(#5a14b0f08b)"><path fill="#b47625" d="M 182.914062 136.261719 C 181.402344 136.261719 179.847656 136.21875 179.03125 136.085938 C 178.125 135.933594 177.703125 135.707031 177.703125 135.371094 C 177.699219 135.128906 177.699219 134.558594 182.246094 133.738281 C 183.742188 133.46875 185.574219 133.335938 187.453125 133.304688 C 186.644531 131.457031 187.074219 128.910156 187.453125 126.628906 C 187.597656 125.785156 187.730469 124.988281 187.800781 124.253906 C 187.8125 124.148438 187.902344 124.074219 188.007812 124.085938 C 188.113281 124.09375 188.1875 124.1875 188.175781 124.292969 C 188.105469 125.042969 187.96875 125.84375 187.824219 126.695312 C 187.441406 128.984375 187.011719 131.546875 187.867188 133.304688 C 192.289062 133.269531 196.871094 133.773438 197.945312 134.386719 C 198.597656 134.757812 198.644531 135.101562 198.574219 135.324219 C 198.210938 136.441406 194.050781 136.152344 191.601562 135.878906 C 189.878906 135.6875 188.671875 135.109375 187.917969 134.109375 C 187.816406 133.972656 187.722656 133.832031 187.640625 133.6875 C 185.738281 133.707031 183.863281 133.835938 182.3125 134.113281 C 178.222656 134.851562 178.082031 135.351562 178.078125 135.375 C 178.078125 135.375 178.175781 135.5625 179.089844 135.714844 C 180.921875 136.019531 186.777344 135.820312 186.839844 135.816406 C 186.945312 135.820312 187.03125 135.894531 187.035156 136 C 187.039062 136.105469 186.957031 136.191406 186.851562 136.195312 C 186.71875 136.195312 184.851562 136.261719 182.914062 136.261719 Z M 188.078125 133.683594 C 188.125 133.75 188.171875 133.816406 188.21875 133.878906 C 188.910156 134.792969 190.027344 135.324219 191.640625 135.503906 C 196.585938 136.054688 198.101562 135.550781 198.214844 135.207031 C 198.242188 135.121094 198.140625 134.933594 197.753906 134.714844 C 196.84375 134.191406 192.441406 133.675781 188.078125 133.683594 Z M 188.078125 133.683594 " fill-opacity="1" fill-rule="nonzero"/></g><g clip-path="url(#647870cdf5)"><path fill="#b47625" d="M 188.144531 123.785156 C 188.132812 123.785156 188.121094 123.785156 188.109375 123.785156 C 188.007812 123.765625 187.9375 123.667969 187.957031 123.5625 C 188.265625 121.9375 188.570312 121.277344 193.042969 121.273438 C 196.28125 121.269531 202.3125 121.261719 203.226562 119.761719 C 203.296875 119.644531 203.265625 119.59375 203.253906 119.566406 C 202.90625 118.980469 199.898438 118.804688 195.796875 118.832031 C 193.273438 119.683594 189.640625 120.476562 184.859375 121.222656 C 176.84375 122.476562 171.820312 120.917969 171.441406 119.976562 C 171.402344 119.875 171.320312 119.664062 171.4375 119.488281 C 171.652344 119.160156 172.328125 119.144531 175.574219 119.066406 C 177.476562 119.019531 180.351562 118.949219 184.464844 118.78125 C 189.253906 118.582031 192.945312 118.472656 195.746094 118.453125 C 198.019531 117.679688 199.34375 116.871094 199.695312 116.03125 C 200.625 113.824219 201.089844 108.675781 199.921875 107.289062 C 199.675781 106.996094 198.660156 106.804688 197.160156 106.6875 C 195.25 112.484375 182.75 115.648438 181.21875 116.015625 C 178.308594 116.714844 176.324219 116.613281 175.148438 115.710938 C 174.363281 115.105469 173.960938 114.148438 173.929688 112.789062 C 173.917969 112.359375 173.871094 111.894531 173.824219 111.441406 C 173.683594 110.078125 173.535156 108.671875 174.308594 107.742188 C 174.78125 107.175781 175.535156 106.859375 176.609375 106.773438 C 176.78125 106.757812 190.359375 105.816406 196.878906 106.296875 C 196.980469 105.929688 197.03125 105.550781 197.027344 105.164062 C 197.015625 103.121094 197.085938 101.335938 197.140625 99.902344 C 197.230469 97.460938 197.292969 95.851562 196.910156 95.1875 C 196.582031 94.613281 193.082031 93.980469 189.136719 93.671875 C 189.441406 94.113281 189.566406 94.535156 189.53125 94.964844 C 189.417969 96.453125 187.355469 98 182.777344 100.898438 C 179.996094 102.664062 178.109375 103.191406 177.003906 102.515625 C 175.773438 101.761719 175.785156 99.738281 175.976562 97.660156 L 176.019531 97.203125 C 176.3125 93.945312 176.480469 93.628906 181.445312 93.210938 C 183.300781 93.050781 185.804688 93.082031 188.269531 93.242188 C 188.175781 93.148438 188.074219 93.058594 187.964844 92.964844 C 185.242188 90.578125 184.957031 88.84375 186.839844 86.09375 C 186.9375 85.949219 187.023438 85.8125 187.097656 85.683594 C 187 85.460938 186.929688 85.230469 186.882812 84.988281 C 186.738281 84.183594 186.964844 83.761719 187.226562 83.636719 C 187.410156 83.546875 187.609375 83.59375 187.75 83.757812 C 187.996094 84.046875 188.046875 84.707031 187.523438 85.699219 C 187.734375 86.132812 188.03125 86.550781 188.34375 86.980469 C 189.125 88.070312 189.933594 89.195312 189.578125 90.851562 C 189.554688 90.953125 189.457031 91.019531 189.351562 90.996094 C 189.25 90.972656 189.1875 90.875 189.207031 90.773438 C 189.527344 89.277344 188.769531 88.222656 188.039062 87.203125 C 187.777344 86.839844 187.511719 86.472656 187.296875 86.082031 C 187.25 86.15625 187.203125 86.230469 187.148438 86.304688 C 185.390625 88.878906 185.648438 90.425781 188.214844 92.675781 C 188.453125 92.882812 188.65625 93.082031 188.828125 93.273438 C 192.933594 93.574219 196.796875 94.230469 197.238281 94.996094 C 197.675781 95.75 197.617188 97.316406 197.515625 99.910156 C 197.460938 101.34375 197.394531 103.121094 197.40625 105.15625 C 197.40625 105.558594 197.359375 105.945312 197.265625 106.324219 C 198.824219 106.460938 199.914062 106.6875 200.214844 107.042969 C 201.554688 108.636719 200.929688 114.070312 200.046875 116.175781 C 199.707031 116.976562 198.644531 117.730469 196.84375 118.449219 C 201.355469 118.457031 203.214844 118.753906 203.582031 119.375 C 203.65625 119.5 203.707031 119.699219 203.554688 119.957031 C 202.609375 121.507812 197.84375 121.644531 193.046875 121.648438 C 188.707031 121.652344 188.589844 122.273438 188.332031 123.632812 C 188.3125 123.722656 188.234375 123.785156 188.144531 123.785156 Z M 171.746094 119.695312 C 171.75 119.695312 171.746094 119.726562 171.789062 119.835938 C 172.027344 120.425781 176.621094 122.128906 184.796875 120.851562 C 188.847656 120.21875 192.082031 119.546875 194.5 118.839844 C 191.4375 118.882812 187.90625 119.015625 184.472656 119.15625 C 180.359375 119.324219 177.480469 119.398438 175.578125 119.445312 C 173.191406 119.503906 171.875 119.535156 171.746094 119.695312 Z M 192.136719 106.539062 C 186.773438 106.539062 180.042969 106.878906 176.636719 107.148438 C 175.667969 107.226562 175 107.5 174.597656 107.984375 C 173.925781 108.792969 174.0625 110.121094 174.195312 111.402344 C 174.242188 111.863281 174.292969 112.335938 174.304688 112.78125 C 174.335938 114.019531 174.6875 114.878906 175.378906 115.410156 C 176.441406 116.230469 178.375 116.308594 181.128906 115.648438 C 186.46875 114.367188 195.140625 111.140625 196.757812 106.660156 C 195.46875 106.574219 193.875 106.539062 192.136719 106.539062 Z M 184.429688 93.472656 C 183.378906 93.472656 182.375 93.507812 181.472656 93.585938 C 176.683594 93.988281 176.667969 94.175781 176.390625 97.238281 L 176.347656 97.699219 C 176.175781 99.558594 176.140625 101.542969 177.199219 102.191406 C 178.152344 102.777344 179.960938 102.234375 182.570312 100.582031 C 186.949219 97.804688 189.050781 96.253906 189.152344 94.9375 C 189.1875 94.519531 189.023438 94.105469 188.628906 93.632812 C 187.234375 93.53125 185.792969 93.472656 184.429688 93.472656 Z M 187.40625 83.972656 C 187.398438 83.972656 187.394531 83.976562 187.386719 83.976562 C 187.277344 84.027344 187.144531 84.332031 187.253906 84.917969 C 187.273438 85.023438 187.296875 85.125 187.332031 85.230469 C 187.648438 84.503906 187.550781 84.113281 187.460938 84.003906 C 187.433594 83.980469 187.417969 83.972656 187.40625 83.972656 Z M 187.40625 83.972656 " fill-opacity="1" fill-rule="nonzero"/></g></svg>