<svg xmlns="http://www.w3.org/2000/svg" xmlns:xlink="http://www.w3.org/1999/xlink" width="500" zoomAndPan="magnify" viewBox="0 0 375 374.999991" height="500" preserveAspectRatio="xMidYMid meet" version="1.0"><defs><g/><clipPath id="a34633de47"><path d="M 111.449219 192 L 259 192 L 259 202 L 111.449219 202 Z M 111.449219 192 " clip-rule="nonzero"/></clipPath><clipPath id="66044ec55f"><path d="M 184 200 L 186 200 L 186 210.160156 L 184 210.160156 Z M 184 200 " clip-rule="nonzero"/></clipPath><clipPath id="e0e1dcf353"><path d="M 236 91 L 266.699219 91 L 266.699219 93 L 236 93 Z M 236 91 " clip-rule="nonzero"/></clipPath><clipPath id="8f19d12a45"><path d="M 197 42.160156 L 203 42.160156 L 203 47 L 197 47 Z M 197 42.160156 " clip-rule="nonzero"/></clipPath><clipPath id="57f66b9a83"><path d="M 184 265.628906 L 186 265.628906 L 186 270 L 184 270 Z M 184 265.628906 " clip-rule="nonzero"/></clipPath><clipPath id="9073a79a4f"><path d="M 156 267 L 214 267 L 214 296.378906 L 156 296.378906 Z M 156 267 " clip-rule="nonzero"/></clipPath></defs><rect x="-37.5" width="450" fill="#ffffff" y="-37.499999" height="449.999989" fill-opacity="1"/><rect x="-37.5" width="450" fill="#dfebe9" y="-37.499999" height="449.999989" fill-opacity="1"/><path fill="#f1e4eb" d="M 227.3125 132.136719 C 224.503906 129.09375 221.480469 126.550781 218.332031 124.5625 C 219.320312 123.359375 220.226562 122.046875 221.003906 120.605469 C 226.414062 110.585938 223.390625 98.648438 223.257812 98.144531 C 223.257812 98.136719 223.253906 98.136719 223.253906 98.132812 C 223.238281 98.082031 223.210938 98.035156 223.183594 97.988281 C 223.175781 97.980469 223.167969 97.964844 223.164062 97.953125 C 223.128906 97.910156 223.082031 97.871094 223.03125 97.84375 C 223.019531 97.835938 223.011719 97.824219 223.003906 97.824219 L 223.003906 97.816406 C 222.875 97.746094 222.730469 97.738281 222.597656 97.78125 C 222.597656 97.789062 222.597656 97.789062 222.59375 97.789062 C 222.105469 97.953125 210.46875 101.988281 205.0625 112.007812 C 203.207031 115.445312 202.160156 119.484375 201.921875 124.027344 C 201.425781 122.46875 200.753906 121.050781 199.894531 119.828125 C 195.960938 114.179688 188.683594 112.570312 188.375 112.507812 C 188.238281 112.476562 188.09375 112.507812 187.976562 112.589844 C 187.859375 112.675781 187.777344 112.796875 187.761719 112.933594 C 187.714844 113.25 186.703125 120.632812 190.644531 126.273438 C 191.089844 126.921875 191.605469 127.539062 192.175781 128.125 C 162.039062 140.082031 144.894531 146.804688 143.863281 147.0625 C 143.835938 147.0625 143.8125 147.078125 143.785156 147.089844 C 143.757812 147.097656 143.730469 147.097656 143.710938 147.113281 C 143.675781 147.132812 143.640625 147.152344 143.613281 147.175781 C 143.59375 147.195312 143.574219 147.203125 143.558594 147.222656 C 143.527344 147.257812 143.503906 147.289062 143.484375 147.324219 C 143.476562 147.347656 143.464844 147.359375 143.457031 147.378906 C 143.429688 147.441406 143.414062 147.503906 143.414062 147.574219 L 143.414062 189.832031 C 143.414062 190.121094 143.648438 190.347656 143.929688 190.347656 L 233.484375 190.347656 C 233.765625 190.347656 234 190.121094 234 189.832031 L 234 147.585938 C 234.019531 147.144531 234.289062 139.683594 227.3125 132.136719 Z M 227.3125 132.136719 " fill-opacity="1" fill-rule="nonzero"/><g clip-path="url(#a34633de47)"><path fill="#b47625" d="M 231.367188 201.382812 L 138.515625 201.382812 C 128.90625 201.382812 119.664062 198.476562 111.78125 192.980469 C 111.597656 192.847656 111.519531 192.613281 111.582031 192.402344 C 111.652344 192.1875 111.851562 192.042969 112.078125 192.042969 L 257.808594 192.042969 C 258.035156 192.042969 258.234375 192.1875 258.300781 192.402344 C 258.371094 192.613281 258.289062 192.847656 258.101562 192.980469 C 250.21875 198.476562 240.976562 201.382812 231.367188 201.382812 Z M 113.769531 193.074219 C 121.164062 197.84375 129.675781 200.351562 138.515625 200.351562 L 231.367188 200.351562 C 240.199219 200.351562 248.722656 197.839844 256.117188 193.074219 Z M 113.769531 193.074219 " fill-opacity="1" fill-rule="nonzero"/></g><g clip-path="url(#66044ec55f)"><path fill="#b47625" d="M 184.9375 273.457031 C 184.65625 273.457031 184.421875 273.222656 184.421875 272.941406 L 184.421875 201.296875 C 184.421875 201.011719 184.65625 200.78125 184.9375 200.78125 C 185.21875 200.78125 185.453125 201.011719 185.453125 201.296875 L 185.453125 272.941406 C 185.453125 273.222656 185.226562 273.457031 184.9375 273.457031 Z M 184.9375 273.457031 " fill-opacity="1" fill-rule="nonzero"/></g><path fill="#b47625" d="M 251.773438 125.042969 C 251.492188 125.042969 251.257812 124.8125 251.257812 124.527344 L 251.257812 63.074219 C 251.257812 62.792969 251.492188 62.558594 251.773438 62.558594 C 252.054688 62.558594 252.289062 62.792969 252.289062 63.074219 L 252.289062 124.527344 C 252.289062 124.8125 252.054688 125.042969 251.773438 125.042969 Z M 251.773438 125.042969 " fill-opacity="1" fill-rule="nonzero"/><g clip-path="url(#e0e1dcf353)"><path fill="#b47625" d="M 266.136719 92.1875 L 237.402344 92.1875 C 237.121094 92.1875 236.886719 91.953125 236.886719 91.671875 C 236.886719 91.390625 237.121094 91.15625 237.402344 91.15625 L 266.136719 91.15625 C 266.417969 91.15625 266.652344 91.390625 266.652344 91.671875 C 266.652344 91.953125 266.417969 92.1875 266.136719 92.1875 Z M 266.136719 92.1875 " fill-opacity="1" fill-rule="nonzero"/></g><path fill="#b47625" d="M 259.222656 87.535156 L 244.324219 87.535156 C 244.042969 87.535156 243.808594 87.300781 243.808594 87.019531 C 243.808594 86.738281 244.042969 86.503906 244.324219 86.503906 L 259.222656 86.503906 C 259.503906 86.503906 259.738281 86.738281 259.738281 87.019531 C 259.738281 87.300781 259.503906 87.535156 259.222656 87.535156 Z M 259.222656 87.535156 " fill-opacity="1" fill-rule="nonzero"/><path fill="#b47625" d="M 259.222656 96.847656 L 244.324219 96.847656 C 244.042969 96.847656 243.808594 96.613281 243.808594 96.332031 C 243.808594 96.050781 244.042969 95.816406 244.324219 95.816406 L 259.222656 95.816406 C 259.503906 95.816406 259.738281 96.050781 259.738281 96.332031 C 259.738281 96.613281 259.503906 96.847656 259.222656 96.847656 Z M 259.222656 96.847656 " fill-opacity="1" fill-rule="nonzero"/><path fill="#b47625" d="M 210.378906 92.941406 L 207.007812 92.941406 C 206.722656 92.941406 206.492188 92.710938 206.492188 92.425781 C 206.492188 92.144531 206.722656 91.910156 207.007812 91.910156 L 210.378906 91.910156 C 210.660156 91.910156 210.894531 92.144531 210.894531 92.425781 C 210.894531 92.710938 210.667969 92.941406 210.378906 92.941406 Z M 210.378906 92.941406 " fill-opacity="1" fill-rule="nonzero"/><path fill="#b47625" d="M 208.695312 94.632812 C 208.414062 94.632812 208.179688 94.398438 208.179688 94.117188 L 208.179688 90.742188 C 208.179688 90.460938 208.414062 90.226562 208.695312 90.226562 C 208.976562 90.226562 209.210938 90.460938 209.210938 90.742188 L 209.210938 94.117188 C 209.210938 94.398438 208.976562 94.632812 208.695312 94.632812 Z M 208.695312 94.632812 " fill-opacity="1" fill-rule="nonzero"/><path fill="#b47625" d="M 229.652344 67.84375 C 229.636719 67.84375 229.621094 67.84375 229.609375 67.84375 C 226.054688 67.554688 224.675781 66.195312 224.34375 62.640625 C 224.316406 62.359375 224.53125 62.105469 224.8125 62.078125 C 225.085938 62.050781 225.347656 62.257812 225.375 62.546875 C 225.65625 65.609375 226.625 66.566406 229.691406 66.8125 C 229.972656 66.835938 230.1875 67.089844 230.164062 67.371094 C 230.136719 67.636719 229.910156 67.84375 229.652344 67.84375 Z M 229.652344 67.84375 " fill-opacity="1" fill-rule="nonzero"/><path fill="#b47625" d="M 224.914062 72.613281 C 224.902344 72.613281 224.886719 72.613281 224.875 72.613281 C 224.59375 72.59375 224.378906 72.339844 224.398438 72.058594 C 224.6875 68.503906 226.050781 67.121094 229.601562 66.800781 C 229.878906 66.773438 230.136719 66.980469 230.164062 67.265625 C 230.195312 67.550781 229.980469 67.804688 229.699219 67.832031 C 226.632812 68.113281 225.679688 69.082031 225.429688 72.148438 C 225.410156 72.40625 225.183594 72.613281 224.914062 72.613281 Z M 224.914062 72.613281 " fill-opacity="1" fill-rule="nonzero"/><path fill="#b47625" d="M 224.929688 72.613281 C 224.667969 72.613281 224.441406 72.414062 224.414062 72.148438 C 224.132812 69.082031 223.164062 68.125 220.097656 67.878906 C 219.816406 67.859375 219.601562 67.605469 219.625 67.320312 C 219.644531 67.039062 219.90625 66.835938 220.179688 66.847656 C 223.734375 67.136719 225.113281 68.496094 225.4375 72.050781 C 225.464844 72.332031 225.253906 72.585938 224.96875 72.613281 C 224.964844 72.613281 224.949219 72.613281 224.929688 72.613281 Z M 224.929688 72.613281 " fill-opacity="1" fill-rule="nonzero"/><path fill="#b47625" d="M 220.140625 67.898438 C 219.878906 67.898438 219.652344 67.699219 219.625 67.433594 C 219.597656 67.152344 219.808594 66.894531 220.089844 66.867188 C 223.15625 66.585938 224.113281 65.617188 224.359375 62.550781 C 224.378906 62.269531 224.640625 62.066406 224.914062 62.078125 C 225.195312 62.097656 225.410156 62.351562 225.390625 62.636719 C 225.101562 66.1875 223.742188 67.570312 220.1875 67.894531 C 220.171875 67.898438 220.160156 67.898438 220.140625 67.898438 Z M 220.140625 67.898438 " fill-opacity="1" fill-rule="nonzero"/><g clip-path="url(#8f19d12a45)"><path fill="#b47625" d="M 200.351562 46.898438 C 199.039062 46.898438 197.976562 45.832031 197.976562 44.519531 C 197.976562 43.207031 199.039062 42.140625 200.351562 42.140625 C 201.667969 42.140625 202.730469 43.207031 202.730469 44.519531 C 202.730469 45.832031 201.667969 46.898438 200.351562 46.898438 Z M 200.351562 43.171875 C 199.609375 43.171875 199.007812 43.777344 199.007812 44.519531 C 199.007812 45.261719 199.609375 45.867188 200.351562 45.867188 C 201.09375 45.867188 201.699219 45.261719 201.699219 44.519531 C 201.699219 43.777344 201.09375 43.171875 200.351562 43.171875 Z M 200.351562 43.171875 " fill-opacity="1" fill-rule="nonzero"/></g><path fill="#b47625" d="M 229.761719 150.753906 C 229.753906 150.753906 229.738281 150.753906 229.734375 150.753906 C 229.453125 150.742188 229.230469 150.492188 229.246094 150.210938 C 229.25 150.136719 229.5625 142.777344 222.832031 135.503906 C 219.972656 132.410156 216.894531 129.839844 213.691406 127.863281 C 213.453125 127.710938 213.375 127.394531 213.519531 127.15625 C 213.664062 126.914062 213.988281 126.839844 214.230469 126.984375 C 217.515625 129.003906 220.660156 131.636719 223.589844 134.796875 C 230.625 142.410156 230.289062 149.945312 230.269531 150.257812 C 230.253906 150.542969 230.027344 150.753906 229.761719 150.753906 Z M 229.761719 150.753906 " fill-opacity="1" fill-rule="nonzero"/><path fill="#b47625" d="M 140.207031 150.753906 C 139.925781 150.753906 139.691406 150.519531 139.691406 150.238281 C 139.691406 149.976562 139.882812 149.765625 140.136719 149.730469 C 141.175781 149.46875 158.535156 142.664062 189.046875 130.554688 C 189.308594 130.453125 189.613281 130.582031 189.714844 130.84375 C 189.816406 131.105469 189.6875 131.410156 189.425781 131.511719 C 140.929688 150.753906 140.441406 150.753906 140.207031 150.753906 Z M 140.207031 150.753906 " fill-opacity="1" fill-rule="nonzero"/><path fill="#b47625" d="M 229.417969 161.488281 L 218.621094 161.488281 C 218.339844 161.488281 218.105469 161.253906 218.105469 160.972656 C 218.105469 160.691406 218.339844 160.457031 218.621094 160.457031 L 229.417969 160.457031 C 229.699219 160.457031 229.933594 160.691406 229.933594 160.972656 C 229.933594 161.253906 229.699219 161.488281 229.417969 161.488281 Z M 229.417969 161.488281 " fill-opacity="1" fill-rule="nonzero"/><path fill="#b47625" d="M 176.382812 161.488281 L 157.875 161.488281 C 157.59375 161.488281 157.359375 161.253906 157.359375 160.972656 C 157.359375 160.691406 157.59375 160.457031 157.875 160.457031 L 176.382812 160.457031 C 176.664062 160.457031 176.898438 160.691406 176.898438 160.972656 C 176.898438 161.253906 176.664062 161.488281 176.382812 161.488281 Z M 176.382812 161.488281 " fill-opacity="1" fill-rule="nonzero"/><path fill="#b47625" d="M 148.390625 161.488281 L 140.425781 161.488281 C 140.144531 161.488281 139.910156 161.253906 139.910156 160.972656 C 139.910156 160.691406 140.144531 160.457031 140.425781 160.457031 L 148.390625 160.457031 C 148.671875 160.457031 148.90625 160.691406 148.90625 160.972656 C 148.90625 161.253906 148.671875 161.488281 148.390625 161.488281 Z M 148.390625 161.488281 " fill-opacity="1" fill-rule="nonzero"/><path fill="#b47625" d="M 229.519531 170.636719 L 224.710938 170.636719 C 224.425781 170.636719 224.195312 170.402344 224.195312 170.121094 C 224.195312 169.839844 224.425781 169.605469 224.710938 169.605469 L 229.519531 169.605469 C 229.800781 169.605469 230.035156 169.839844 230.035156 170.121094 C 230.035156 170.402344 229.800781 170.636719 229.519531 170.636719 Z M 229.519531 170.636719 " fill-opacity="1" fill-rule="nonzero"/><path fill="#b47625" d="M 170.535156 170.636719 L 162.753906 170.636719 C 162.472656 170.636719 162.238281 170.402344 162.238281 170.121094 C 162.238281 169.839844 162.472656 169.605469 162.753906 169.605469 L 170.535156 169.605469 C 170.816406 169.605469 171.050781 169.839844 171.050781 170.121094 C 171.050781 170.402344 170.824219 170.636719 170.535156 170.636719 Z M 170.535156 170.636719 " fill-opacity="1" fill-rule="nonzero"/><path fill="#b47625" d="M 143.527344 170.636719 L 140.351562 170.636719 C 140.070312 170.636719 139.835938 170.402344 139.835938 170.121094 C 139.835938 169.839844 140.070312 169.605469 140.351562 169.605469 L 143.527344 169.605469 C 143.808594 169.605469 144.039062 169.839844 144.039062 170.121094 C 144.039062 170.402344 143.8125 170.636719 143.527344 170.636719 Z M 143.527344 170.636719 " fill-opacity="1" fill-rule="nonzero"/><path fill="#b47625" d="M 229.664062 177.960938 L 227.300781 177.960938 C 227.019531 177.960938 226.785156 177.730469 226.785156 177.449219 C 226.785156 177.164062 227.019531 176.933594 227.300781 176.933594 L 229.664062 176.933594 C 229.945312 176.933594 230.179688 177.164062 230.179688 177.449219 C 230.179688 177.730469 229.945312 177.960938 229.664062 177.960938 Z M 229.664062 177.960938 " fill-opacity="1" fill-rule="nonzero"/><path fill="#b47625" d="M 167.910156 177.960938 L 164.617188 177.960938 C 164.335938 177.960938 164.101562 177.730469 164.101562 177.449219 C 164.101562 177.164062 164.335938 176.933594 164.617188 176.933594 L 167.910156 176.933594 C 168.191406 176.933594 168.425781 177.164062 168.425781 177.449219 C 168.425781 177.730469 168.199219 177.960938 167.910156 177.960938 Z M 167.910156 177.960938 " fill-opacity="1" fill-rule="nonzero"/><path fill="#b47625" d="M 229.28125 192.945312 C 228.996094 192.945312 228.765625 192.710938 228.765625 192.429688 C 228.765625 169.578125 214.773438 150.980469 197.578125 150.980469 C 180.382812 150.980469 166.390625 169.570312 166.390625 192.429688 C 166.390625 192.710938 166.15625 192.945312 165.875 192.945312 C 165.59375 192.945312 165.359375 192.710938 165.359375 192.429688 C 165.359375 181.027344 168.691406 170.347656 174.753906 162.363281 C 180.820312 154.355469 188.929688 149.949219 197.582031 149.949219 C 206.234375 149.949219 214.34375 154.355469 220.414062 162.363281 C 226.46875 170.347656 229.808594 181.027344 229.808594 192.429688 C 229.792969 192.710938 229.566406 192.945312 229.28125 192.945312 Z M 229.28125 192.945312 " fill-opacity="1" fill-rule="nonzero"/><path fill="#b47625" d="M 165.828125 193 C 165.542969 193 165.3125 192.765625 165.3125 192.484375 C 165.3125 174.164062 159.855469 159.253906 153.148438 159.253906 C 146.4375 159.253906 140.984375 174.164062 140.984375 192.484375 C 140.984375 192.765625 140.75 193 140.46875 193 C 140.183594 193 139.953125 192.765625 139.953125 192.484375 C 139.953125 173.277344 145.746094 158.226562 153.148438 158.226562 C 160.542969 158.226562 166.34375 173.277344 166.34375 192.484375 C 166.34375 192.765625 166.113281 193 165.828125 193 Z M 165.828125 193 " fill-opacity="1" fill-rule="nonzero"/><path fill="#b47625" d="M 229.761719 193.011719 L 140.207031 193.011719 C 139.925781 193.011719 139.691406 192.78125 139.691406 192.5 L 139.691406 150.238281 C 139.691406 149.957031 139.925781 149.722656 140.207031 149.722656 L 229.761719 149.722656 C 230.042969 149.722656 230.277344 149.957031 230.277344 150.238281 L 230.277344 192.5 C 230.277344 192.78125 230.042969 193.011719 229.761719 193.011719 Z M 140.722656 191.984375 L 229.246094 191.984375 L 229.246094 150.753906 L 140.722656 150.753906 Z M 140.722656 191.984375 " fill-opacity="1" fill-rule="nonzero"/><path fill="#b47625" d="M 203.953125 135.550781 C 203.769531 135.550781 203.589844 135.457031 203.5 135.277344 C 203.371094 135.023438 203.460938 134.714844 203.714844 134.582031 C 207.742188 132.4375 213.210938 128.660156 216.371094 122.785156 C 220.9375 114.316406 219.183594 104.105469 218.660156 101.628906 C 216.304688 102.550781 206.804688 106.703125 202.242188 115.160156 C 200.410156 118.5625 199.382812 122.589844 199.199219 127.148438 C 199.125 129.039062 199.191406 130.976562 199.410156 132.925781 C 199.445312 133.210938 199.238281 133.464844 198.957031 133.496094 C 198.667969 133.523438 198.421875 133.324219 198.386719 133.042969 C 198.167969 131.042969 198.09375 129.050781 198.175781 127.113281 C 198.367188 122.40625 199.433594 118.21875 201.335938 114.679688 C 206.746094 104.660156 218.378906 100.625 218.867188 100.453125 C 219.003906 100.40625 219.148438 100.421875 219.28125 100.488281 C 219.402344 100.558594 219.5 100.675781 219.535156 100.8125 C 219.664062 101.3125 222.6875 113.25 217.28125 123.277344 C 213.988281 129.375 208.347656 133.285156 204.195312 135.496094 C 204.121094 135.53125 204.035156 135.550781 203.953125 135.550781 Z M 203.953125 135.550781 " fill-opacity="1" fill-rule="nonzero"/><path fill="#b47625" d="M 201.667969 133.882812 C 201.582031 133.882812 201.5 133.863281 201.425781 133.820312 C 201.171875 133.683594 201.082031 133.375 201.210938 133.121094 L 218.585938 100.6875 C 218.714844 100.433594 219.03125 100.34375 219.285156 100.476562 C 219.542969 100.613281 219.628906 100.921875 219.5 101.175781 L 202.125 133.609375 C 202.023438 133.785156 201.84375 133.882812 201.667969 133.882812 Z M 201.667969 133.882812 " fill-opacity="1" fill-rule="nonzero"/><path fill="#b47625" d="M 195.785156 135.386719 C 195.722656 135.386719 195.660156 135.375 195.597656 135.351562 C 193.789062 134.644531 191.171875 133.359375 188.953125 131.277344 C 188.175781 130.550781 187.496094 129.757812 186.917969 128.941406 C 182.980469 123.292969 183.988281 115.910156 184.039062 115.601562 C 184.058594 115.457031 184.132812 115.332031 184.25 115.25 C 184.367188 115.167969 184.511719 115.140625 184.648438 115.167969 C 184.960938 115.238281 192.230469 116.839844 196.167969 122.488281 C 197.15625 123.910156 197.921875 125.566406 198.429688 127.429688 C 198.902344 129.152344 199.15625 131.023438 199.191406 132.976562 C 199.199219 133.257812 198.972656 133.496094 198.683594 133.496094 C 198.386719 133.511719 198.167969 133.277344 198.160156 132.988281 C 198.132812 131.121094 197.886719 129.347656 197.441406 127.703125 C 196.957031 125.957031 196.25 124.40625 195.328125 123.078125 C 192.238281 118.644531 186.761719 116.8125 185 116.324219 C 184.855469 118.144531 184.675781 123.917969 187.769531 128.351562 C 188.304688 129.113281 188.9375 129.847656 189.660156 130.527344 C 191.757812 132.5 194.25 133.722656 195.976562 134.398438 C 196.242188 134.5 196.375 134.804688 196.265625 135.066406 C 196.183594 135.265625 195.988281 135.386719 195.785156 135.386719 Z M 195.785156 135.386719 " fill-opacity="1" fill-rule="nonzero"/><path fill="#b47625" d="M 199.789062 143.558594 C 196.746094 143.558594 194.265625 141.078125 194.265625 138.035156 C 194.265625 134.988281 196.746094 132.507812 199.789062 132.507812 C 202.835938 132.507812 205.316406 134.988281 205.316406 138.035156 C 205.316406 141.078125 202.839844 143.558594 199.789062 143.558594 Z M 199.789062 133.539062 C 197.308594 133.539062 195.296875 135.550781 195.296875 138.035156 C 195.296875 140.515625 197.308594 142.527344 199.789062 142.527344 C 202.269531 142.527344 204.285156 140.515625 204.285156 138.035156 C 204.285156 135.550781 202.269531 133.539062 199.789062 133.539062 Z M 199.789062 133.539062 " fill-opacity="1" fill-rule="nonzero"/><path fill="#b47625" d="M 209.84375 143.558594 C 206.800781 143.558594 204.320312 141.078125 204.320312 138.035156 C 204.320312 134.988281 206.800781 132.507812 209.84375 132.507812 C 212.890625 132.507812 215.371094 134.988281 215.371094 138.035156 C 215.371094 141.078125 212.890625 143.558594 209.84375 143.558594 Z M 209.84375 133.539062 C 207.363281 133.539062 205.351562 135.550781 205.351562 138.035156 C 205.351562 140.515625 207.363281 142.527344 209.84375 142.527344 C 212.324219 142.527344 214.339844 140.515625 214.339844 138.035156 C 214.339844 135.550781 212.316406 133.539062 209.84375 133.539062 Z M 209.84375 133.539062 " fill-opacity="1" fill-rule="nonzero"/><path fill="#b47625" d="M 189.761719 143.558594 C 186.71875 143.558594 184.238281 141.078125 184.238281 138.035156 C 184.238281 134.988281 186.71875 132.507812 189.761719 132.507812 C 192.808594 132.507812 195.289062 134.988281 195.289062 138.035156 C 195.289062 141.078125 192.808594 143.558594 189.761719 143.558594 Z M 189.761719 133.539062 C 187.28125 133.539062 185.269531 135.550781 185.269531 138.035156 C 185.269531 140.515625 187.28125 142.527344 189.761719 142.527344 C 192.242188 142.527344 194.257812 140.515625 194.257812 138.035156 C 194.257812 135.550781 192.238281 133.539062 189.761719 133.539062 Z M 189.761719 133.539062 " fill-opacity="1" fill-rule="nonzero"/><g fill="#b47625" fill-opacity="1"><g transform="translate(115.323391, 238.280681)"><g><path d="M 11.429688 0.273438 C 13.921875 0.273438 16.019531 -0.46875 17.75 -1.703125 L 17.230469 -2.640625 C 15.503906 -1.433594 13.527344 -0.816406 11.429688 -0.816406 C 6.617188 -0.816406 2.394531 -4.371094 2.394531 -9.972656 L 2.394531 -10.023438 C 2.394531 -15.699219 6.640625 -19.207031 11.453125 -19.207031 C 13.527344 -19.207031 15.503906 -18.589844 17.230469 -17.355469 L 17.75 -18.292969 C 15.945312 -19.601562 13.699219 -20.316406 11.453125 -20.316406 C 5.554688 -20.316406 1.183594 -16.019531 1.183594 -10.023438 L 1.183594 -9.972656 C 1.183594 -3.972656 5.554688 0.273438 11.429688 0.273438 Z M 11.429688 0.273438 "/></g></g></g><g fill="#b47625" fill-opacity="1"><g transform="translate(149.511079, 238.280681)"><g><path d="M 18.242188 0 L 9.972656 -20.019531 L 8.589844 -20.019531 L 0.445312 0 L 1.652344 0 L 4.417969 -6.863281 L 14.242188 -6.863281 L 17.007812 0 Z M 13.847656 -7.875 L 4.8125 -7.875 L 9.28125 -18.835938 Z M 13.847656 -7.875 "/></g></g></g><g fill="#b47625" fill-opacity="1"><g transform="translate(183.279201, 238.280681)"><g><path d="M 15.230469 -20.019531 L 13.75 -20.019531 L 2.8125 -10.097656 L 2.8125 -20.019531 L 1.628906 -20.019531 L 1.628906 0 L 2.8125 0 L 2.8125 -9.921875 L 13.601562 0 L 15.257812 0 L 4.269531 -10.046875 Z M 15.230469 -20.019531 "/></g></g></g><g fill="#b47625" fill-opacity="1"><g transform="translate(214.060989, 238.280681)"><g><path d="M 14.269531 0 L 14.269531 -1.085938 L 2.8125 -1.085938 L 2.8125 -9.851562 L 13.132812 -9.851562 L 13.132812 -10.9375 L 2.8125 -10.9375 L 2.8125 -18.933594 L 14.121094 -18.933594 L 14.121094 -20.019531 L 1.628906 -20.019531 L 1.628906 0 Z M 14.269531 0 "/></g></g></g><g fill="#b47625" fill-opacity="1"><g transform="translate(244.398532, 238.280681)"><g><path d="M 7.011719 0 C 13.332031 0 17.253906 -3.949219 17.253906 -9.996094 L 17.253906 -10.046875 C 17.253906 -16.070312 13.355469 -20.019531 7.011719 -20.019531 L 1.628906 -20.019531 L 1.628906 0 Z M 2.8125 -18.933594 L 7.011719 -18.933594 C 12.515625 -18.933594 16.019531 -15.453125 16.019531 -10.046875 L 16.019531 -9.996094 C 16.019531 -4.566406 12.492188 -1.085938 7.011719 -1.085938 L 2.8125 -1.085938 Z M 2.8125 -18.933594 "/></g></g></g><g fill="#b47625" fill-opacity="1"><g transform="translate(143.298472, 255.446726)"><g><path d="M 1.359375 -8.390625 C 2.410156 -8.960938 2.976562 -9.25 3.0625 -9.25 C 3.144531 -9.25 3.1875 -9.203125 3.1875 -9.109375 C 3.1875 -9.023438 3.15625 -8.851562 3.09375 -8.59375 C 3.039062 -8.332031 2.972656 -7.992188 2.890625 -7.578125 C 2.804688 -7.160156 2.722656 -6.753906 2.640625 -6.359375 C 2.460938 -5.441406 2.328125 -4.796875 2.234375 -4.421875 C 2.140625 -4.054688 2.09375 -3.867188 2.09375 -3.859375 C 2.09375 -3.796875 2.117188 -3.765625 2.171875 -3.765625 C 2.222656 -3.765625 2.3125 -3.828125 2.4375 -3.953125 C 2.570312 -4.078125 2.695312 -4.1875 2.8125 -4.28125 C 2.925781 -4.382812 3.046875 -4.488281 3.171875 -4.59375 C 3.304688 -4.707031 3.429688 -4.804688 3.546875 -4.890625 C 3.816406 -5.097656 4.019531 -5.203125 4.15625 -5.203125 C 4.300781 -5.203125 4.414062 -5.144531 4.5 -5.03125 C 4.59375 -4.914062 4.664062 -4.785156 4.71875 -4.640625 C 4.789062 -4.367188 4.828125 -4.078125 4.828125 -3.765625 C 4.828125 -3.453125 4.800781 -3.140625 4.75 -2.828125 C 4.695312 -2.515625 4.617188 -2.210938 4.515625 -1.921875 C 4.410156 -1.628906 4.273438 -1.359375 4.109375 -1.109375 C 3.953125 -0.859375 3.773438 -0.640625 3.578125 -0.453125 C 3.140625 -0.046875 2.632812 0.15625 2.0625 0.15625 C 1.800781 0.15625 1.578125 0.101562 1.390625 0 C 1.203125 -0.09375 1.066406 -0.1875 0.984375 -0.28125 C 0.796875 -0.46875 0.703125 -0.707031 0.703125 -1 C 0.703125 -1.082031 0.710938 -1.175781 0.734375 -1.28125 L 2.203125 -8.1875 C 2.210938 -8.21875 2.21875 -8.25 2.21875 -8.28125 L 2.21875 -8.34375 C 2.21875 -8.4375 2.175781 -8.484375 2.09375 -8.484375 C 2.019531 -8.484375 1.921875 -8.453125 1.796875 -8.390625 C 1.679688 -8.335938 1.554688 -8.28125 1.421875 -8.21875 Z M 4 -3.15625 C 4.03125 -3.351562 4.046875 -3.515625 4.046875 -3.640625 C 4.046875 -3.765625 4.039062 -3.875 4.03125 -3.96875 C 4.03125 -4.070312 4.015625 -4.171875 3.984375 -4.265625 C 3.910156 -4.472656 3.773438 -4.578125 3.578125 -4.578125 C 3.296875 -4.441406 3.003906 -4.226562 2.703125 -3.9375 C 2.398438 -3.65625 2.15625 -3.4375 1.96875 -3.28125 L 1.46875 -0.9375 C 1.445312 -0.882812 1.4375 -0.820312 1.4375 -0.75 C 1.4375 -0.6875 1.445312 -0.613281 1.46875 -0.53125 C 1.488281 -0.457031 1.523438 -0.382812 1.578125 -0.3125 C 1.703125 -0.15625 1.882812 -0.078125 2.125 -0.078125 C 2.34375 -0.078125 2.535156 -0.148438 2.703125 -0.296875 C 3.015625 -0.566406 3.289062 -0.941406 3.53125 -1.421875 C 3.75 -1.859375 3.90625 -2.4375 4 -3.15625 Z M 4 -3.15625 "/></g></g></g><g fill="#b47625" fill-opacity="1"><g transform="translate(152.867834, 255.446726)"><g><path d="M 0.46875 3.25 C 0.5625 3.207031 0.65625 3.140625 0.75 3.046875 C 0.84375 2.953125 0.976562 2.710938 1.15625 2.328125 C 1.332031 1.953125 1.457031 1.679688 1.53125 1.515625 C 1.613281 1.347656 1.6875 1.179688 1.75 1.015625 C 2.070312 0.210938 2.234375 -0.390625 2.234375 -0.796875 C 2.234375 -1.566406 2.203125 -2.109375 2.140625 -2.421875 C 1.972656 -3.335938 1.859375 -3.863281 1.796875 -4 C 1.734375 -4.144531 1.675781 -4.242188 1.625 -4.296875 C 1.582031 -4.359375 1.535156 -4.394531 1.484375 -4.40625 C 1.410156 -4.394531 1.304688 -4.296875 1.171875 -4.109375 C 0.910156 -3.765625 0.753906 -3.59375 0.703125 -3.59375 C 0.679688 -3.59375 0.660156 -3.601562 0.640625 -3.625 C 0.617188 -3.644531 0.609375 -3.679688 0.609375 -3.734375 C 0.609375 -3.785156 0.644531 -3.867188 0.71875 -3.984375 C 0.800781 -4.097656 0.894531 -4.210938 1 -4.328125 C 1.101562 -4.441406 1.203125 -4.546875 1.296875 -4.640625 C 1.390625 -4.734375 1.445312 -4.789062 1.46875 -4.8125 C 1.5 -4.84375 1.53125 -4.867188 1.5625 -4.890625 C 1.59375 -4.921875 1.628906 -4.945312 1.671875 -4.96875 C 1.765625 -5.03125 1.84375 -5.0625 1.90625 -5.0625 C 2.039062 -5.0625 2.128906 -5.023438 2.171875 -4.953125 C 2.710938 -4.015625 2.984375 -2.710938 2.984375 -1.046875 C 2.984375 -0.910156 3.019531 -0.816406 3.09375 -0.765625 L 3.53125 -1.546875 C 3.96875 -2.285156 4.28125 -2.929688 4.46875 -3.484375 C 4.539062 -3.691406 4.578125 -3.84375 4.578125 -3.9375 C 4.578125 -4.039062 4.566406 -4.113281 4.546875 -4.15625 C 4.535156 -4.207031 4.515625 -4.253906 4.484375 -4.296875 C 4.421875 -4.398438 4.390625 -4.484375 4.390625 -4.546875 C 4.390625 -4.609375 4.398438 -4.664062 4.421875 -4.71875 C 4.453125 -4.78125 4.488281 -4.835938 4.53125 -4.890625 C 4.625 -5.003906 4.734375 -5.0625 4.859375 -5.0625 C 4.992188 -5.0625 5.09375 -5.039062 5.15625 -5 C 5.226562 -4.96875 5.285156 -4.921875 5.328125 -4.859375 C 5.398438 -4.742188 5.4375 -4.59375 5.4375 -4.40625 C 5.4375 -4.21875 5.390625 -4.023438 5.296875 -3.828125 C 5.210938 -3.628906 5.097656 -3.40625 4.953125 -3.15625 C 4.804688 -2.90625 4.640625 -2.644531 4.453125 -2.375 C 4.273438 -2.101562 4.101562 -1.835938 3.9375 -1.578125 C 3.488281 -0.898438 3.195312 -0.4375 3.0625 -0.1875 C 2.9375 0.113281 2.789062 0.46875 2.625 0.875 C 2.46875 1.28125 2.269531 1.742188 2.03125 2.265625 L 1.828125 2.734375 C 1.816406 2.742188 1.804688 2.757812 1.796875 2.78125 C 1.785156 2.8125 1.78125 2.84375 1.78125 2.875 C 1.757812 2.9375 1.75 2.992188 1.75 3.046875 C 1.75 3.109375 1.757812 3.160156 1.78125 3.203125 C 1.832031 3.273438 1.960938 3.3125 2.171875 3.3125 C 2.203125 3.300781 2.25 3.296875 2.3125 3.296875 C 2.375 3.296875 2.457031 3.300781 2.5625 3.3125 L 2.53125 3.484375 L -0.109375 3.484375 L -0.078125 3.3125 C 0.191406 3.3125 0.375 3.289062 0.46875 3.25 Z M 0.46875 3.25 "/></g></g></g><g fill="#b47625" fill-opacity="1"><g transform="translate(162.987897, 255.446726)"><g/></g></g><g fill="#b47625" fill-opacity="1"><g transform="translate(170.759048, 255.446726)"><g><path d="M 2.390625 -5.0625 C 2.523438 -5.0625 2.59375 -4.9375 2.59375 -4.6875 C 2.59375 -4.570312 2.582031 -4.484375 2.5625 -4.421875 C 2.550781 -4.359375 2.535156 -4.273438 2.515625 -4.171875 C 2.492188 -4.078125 2.460938 -3.929688 2.421875 -3.734375 C 2.378906 -3.535156 2.320312 -3.25 2.25 -2.875 C 2.25 -2.832031 2.265625 -2.8125 2.296875 -2.8125 C 2.328125 -2.8125 2.351562 -2.828125 2.375 -2.859375 C 2.40625 -2.890625 2.453125 -2.9375 2.515625 -3 C 2.578125 -3.070312 2.671875 -3.179688 2.796875 -3.328125 C 2.921875 -3.472656 3.054688 -3.625 3.203125 -3.78125 C 3.347656 -3.9375 3.5 -4.085938 3.65625 -4.234375 C 3.8125 -4.390625 3.960938 -4.53125 4.109375 -4.65625 C 4.460938 -4.925781 4.753906 -5.0625 4.984375 -5.0625 C 5.097656 -5.0625 5.195312 -5.015625 5.28125 -4.921875 C 5.363281 -4.835938 5.40625 -4.742188 5.40625 -4.640625 C 5.40625 -4.546875 5.398438 -4.476562 5.390625 -4.4375 L 4.390625 -0.546875 L 4.390625 -0.515625 C 4.390625 -0.429688 4.4375 -0.390625 4.53125 -0.390625 C 4.675781 -0.390625 4.9375 -0.585938 5.3125 -0.984375 C 5.351562 -1.023438 5.382812 -1.054688 5.40625 -1.078125 L 5.515625 -0.96875 C 5.441406 -0.820312 5.226562 -0.609375 4.875 -0.328125 C 4.476562 -0.00390625 4.175781 0.15625 3.96875 0.15625 C 3.863281 0.15625 3.765625 0.109375 3.671875 0.015625 C 3.585938 -0.0664062 3.546875 -0.15625 3.546875 -0.25 C 3.546875 -0.34375 3.554688 -0.414062 3.578125 -0.46875 L 4.578125 -4.359375 L 4.578125 -4.390625 C 4.578125 -4.421875 4.554688 -4.445312 4.515625 -4.46875 C 4.484375 -4.5 4.441406 -4.507812 4.390625 -4.5 C 4.347656 -4.5 4.265625 -4.453125 4.140625 -4.359375 C 4.023438 -4.273438 3.894531 -4.164062 3.75 -4.03125 C 3.613281 -3.894531 3.46875 -3.738281 3.3125 -3.5625 C 3.15625 -3.394531 3.003906 -3.226562 2.859375 -3.0625 C 2.472656 -2.613281 2.242188 -2.335938 2.171875 -2.234375 C 2.109375 -2.140625 2.066406 -2.039062 2.046875 -1.9375 L 1.640625 -0.0625 C 1.378906 0.0820312 1.179688 0.15625 1.046875 0.15625 C 0.910156 0.15625 0.84375 0.101562 0.84375 0 C 0.84375 -0.0507812 0.847656 -0.113281 0.859375 -0.1875 C 0.898438 -0.34375 0.921875 -0.441406 0.921875 -0.484375 L 1.6875 -4.046875 L 1.6875 -4.0625 C 1.6875 -4.164062 1.640625 -4.21875 1.546875 -4.21875 C 1.492188 -4.21875 1.398438 -4.148438 1.265625 -4.015625 C 1.140625 -3.890625 0.96875 -3.71875 0.75 -3.5 L 0.625 -3.640625 C 0.707031 -3.804688 1.003906 -4.109375 1.515625 -4.546875 C 1.929688 -4.890625 2.222656 -5.0625 2.390625 -5.0625 Z M 2.390625 -5.0625 "/></g></g></g><g fill="#b47625" fill-opacity="1"><g transform="translate(180.895965, 255.446726)"><g><path d="M 2.609375 -4.5625 L 1.765625 -0.515625 C 1.765625 -0.429688 1.8125 -0.390625 1.90625 -0.390625 C 2.050781 -0.390625 2.316406 -0.585938 2.703125 -0.984375 C 2.742188 -1.023438 2.769531 -1.054688 2.78125 -1.078125 L 2.890625 -0.96875 C 2.828125 -0.832031 2.675781 -0.671875 2.4375 -0.484375 C 2.207031 -0.296875 2.039062 -0.164062 1.9375 -0.09375 C 1.695312 0.0703125 1.503906 0.15625 1.359375 0.15625 C 1.222656 0.15625 1.117188 0.101562 1.046875 0 C 0.972656 -0.101562 0.9375 -0.191406 0.9375 -0.265625 C 0.9375 -0.367188 0.945312 -0.460938 0.96875 -0.546875 L 1.78125 -4.359375 L 1.78125 -4.390625 C 1.78125 -4.472656 1.734375 -4.515625 1.640625 -4.515625 C 1.472656 -4.515625 1.226562 -4.332031 0.90625 -3.96875 C 0.832031 -3.894531 0.78125 -3.847656 0.75 -3.828125 L 0.640625 -3.9375 C 0.722656 -4.082031 0.9375 -4.296875 1.28125 -4.578125 C 1.6875 -4.898438 1.972656 -5.0625 2.140625 -5.0625 C 2.304688 -5.0625 2.425781 -5.007812 2.5 -4.90625 C 2.570312 -4.800781 2.609375 -4.6875 2.609375 -4.5625 Z M 2.375 -6.53125 C 2.332031 -6.59375 2.300781 -6.648438 2.28125 -6.703125 C 2.269531 -6.753906 2.265625 -6.8125 2.265625 -6.875 C 2.265625 -6.9375 2.273438 -7.019531 2.296875 -7.125 C 2.328125 -7.238281 2.367188 -7.347656 2.421875 -7.453125 C 2.535156 -7.703125 2.679688 -7.828125 2.859375 -7.828125 C 3.023438 -7.828125 3.132812 -7.734375 3.1875 -7.546875 C 3.207031 -7.492188 3.21875 -7.4375 3.21875 -7.375 C 3.21875 -7.3125 3.203125 -7.226562 3.171875 -7.125 C 3.140625 -7.019531 3.097656 -6.910156 3.046875 -6.796875 C 2.910156 -6.554688 2.757812 -6.4375 2.59375 -6.4375 C 2.5 -6.4375 2.425781 -6.46875 2.375 -6.53125 Z M 2.375 -6.53125 "/></g></g></g><g fill="#b47625" fill-opacity="1"><g transform="translate(188.565967, 255.446726)"><g><path d="M 3.265625 -5.078125 C 3.460938 -5.078125 3.601562 -5.039062 3.6875 -4.96875 C 3.78125 -4.894531 3.828125 -4.742188 3.828125 -4.515625 C 3.828125 -4.285156 3.757812 -4.171875 3.625 -4.171875 C 3.519531 -4.171875 3.394531 -4.210938 3.25 -4.296875 C 3.113281 -4.390625 3.007812 -4.453125 2.9375 -4.484375 C 2.863281 -4.523438 2.769531 -4.546875 2.65625 -4.546875 C 2.539062 -4.546875 2.421875 -4.484375 2.296875 -4.359375 C 2.171875 -4.234375 2.050781 -4.070312 1.9375 -3.875 C 1.832031 -3.675781 1.738281 -3.453125 1.65625 -3.203125 C 1.582031 -2.960938 1.519531 -2.722656 1.46875 -2.484375 C 1.351562 -2.003906 1.296875 -1.65625 1.296875 -1.4375 C 1.296875 -1.226562 1.304688 -1.0625 1.328125 -0.9375 C 1.359375 -0.820312 1.40625 -0.71875 1.46875 -0.625 C 1.59375 -0.40625 1.785156 -0.296875 2.046875 -0.296875 C 2.242188 -0.296875 2.429688 -0.351562 2.609375 -0.46875 C 2.785156 -0.59375 2.925781 -0.695312 3.03125 -0.78125 C 3.132812 -0.863281 3.234375 -0.9375 3.328125 -1 L 3.453125 -0.859375 C 3.097656 -0.515625 2.832031 -0.285156 2.65625 -0.171875 C 2.300781 0.046875 1.929688 0.15625 1.546875 0.15625 C 0.804688 0.15625 0.4375 -0.253906 0.4375 -1.078125 C 0.4375 -2.179688 0.753906 -3.140625 1.390625 -3.953125 C 1.765625 -4.421875 2.175781 -4.75 2.625 -4.9375 C 2.851562 -5.03125 3.066406 -5.078125 3.265625 -5.078125 Z M 3.265625 -5.078125 "/></g></g></g><g fill="#b47625" fill-opacity="1"><g transform="translate(196.92715, 255.446726)"><g><path d="M 4.171875 -5.0625 C 4.390625 -5.0625 4.597656 -4.863281 4.796875 -4.46875 C 5.015625 -4.070312 5.125 -3.664062 5.125 -3.25 C 5.125 -2.84375 5.078125 -2.5 4.984375 -2.21875 C 4.890625 -1.945312 4.757812 -1.691406 4.59375 -1.453125 C 4.4375 -1.210938 4.25 -0.992188 4.03125 -0.796875 C 3.820312 -0.597656 3.59375 -0.429688 3.34375 -0.296875 C 2.820312 0.00390625 2.3125 0.15625 1.8125 0.15625 C 1.601562 0.15625 1.394531 -0.0390625 1.1875 -0.4375 C 0.976562 -0.84375 0.875 -1.21875 0.875 -1.5625 C 0.875 -1.90625 0.914062 -2.226562 1 -2.53125 C 1.09375 -2.832031 1.21875 -3.109375 1.375 -3.359375 C 1.539062 -3.617188 1.726562 -3.851562 1.9375 -4.0625 C 2.15625 -4.269531 2.382812 -4.445312 2.625 -4.59375 C 3.144531 -4.90625 3.660156 -5.0625 4.171875 -5.0625 Z M 1.921875 -2.96875 C 1.859375 -2.75 1.804688 -2.519531 1.765625 -2.28125 C 1.734375 -2.050781 1.71875 -1.851562 1.71875 -1.6875 C 1.71875 -1.519531 1.734375 -1.359375 1.765625 -1.203125 C 1.796875 -1.054688 1.84375 -0.910156 1.90625 -0.765625 C 2.0625 -0.429688 2.28125 -0.265625 2.5625 -0.265625 C 3.070312 -0.265625 3.492188 -0.59375 3.828125 -1.25 C 4.128906 -1.820312 4.28125 -2.457031 4.28125 -3.15625 C 4.28125 -3.613281 4.175781 -4.003906 3.96875 -4.328125 C 3.832031 -4.535156 3.671875 -4.640625 3.484375 -4.640625 C 3.296875 -4.640625 3.125 -4.59375 2.96875 -4.5 C 2.8125 -4.414062 2.664062 -4.296875 2.53125 -4.140625 C 2.40625 -3.992188 2.289062 -3.816406 2.1875 -3.609375 C 2.082031 -3.410156 1.992188 -3.195312 1.921875 -2.96875 Z M 1.921875 -2.96875 "/></g></g></g><g fill="#b47625" fill-opacity="1"><g transform="translate(206.822435, 255.446726)"><g><path d="M 1.5625 -0.515625 C 1.5625 -0.441406 1.609375 -0.40625 1.703125 -0.40625 C 1.847656 -0.40625 2.113281 -0.601562 2.5 -1 C 2.539062 -1.039062 2.570312 -1.066406 2.59375 -1.078125 L 2.6875 -0.984375 C 2.613281 -0.835938 2.40625 -0.617188 2.0625 -0.328125 C 1.65625 -0.00390625 1.351562 0.15625 1.15625 0.15625 C 1.039062 0.15625 0.941406 0.109375 0.859375 0.015625 C 0.773438 -0.0664062 0.734375 -0.15625 0.734375 -0.25 C 0.734375 -0.351562 0.738281 -0.429688 0.75 -0.484375 L 2.40625 -8.1875 C 2.414062 -8.25 2.421875 -8.300781 2.421875 -8.34375 C 2.421875 -8.4375 2.378906 -8.484375 2.296875 -8.484375 C 2.222656 -8.484375 2.128906 -8.453125 2.015625 -8.390625 C 1.898438 -8.335938 1.773438 -8.28125 1.640625 -8.21875 L 1.5625 -8.390625 C 2.625 -8.960938 3.191406 -9.25 3.265625 -9.25 C 3.335938 -9.25 3.375 -9.203125 3.375 -9.109375 C 3.375 -9.023438 3.3125 -8.710938 3.1875 -8.171875 C 3.070312 -7.628906 2.929688 -6.96875 2.765625 -6.1875 C 2.597656 -5.40625 2.453125 -4.722656 2.328125 -4.140625 C 2.203125 -3.554688 2.09375 -3.0625 2 -2.65625 C 1.914062 -2.25 1.84375 -1.910156 1.78125 -1.640625 C 1.726562 -1.378906 1.6875 -1.175781 1.65625 -1.03125 C 1.625 -0.882812 1.601562 -0.773438 1.59375 -0.703125 C 1.582031 -0.628906 1.570312 -0.578125 1.5625 -0.546875 Z M 1.5625 -0.515625 "/></g></g></g><g fill="#b47625" fill-opacity="1"><g transform="translate(214.503674, 255.446726)"><g><path d="M 2.421875 -0.296875 C 2.785156 -0.296875 3.222656 -0.457031 3.734375 -0.78125 L 3.8125 -0.640625 C 3.414062 -0.335938 2.96875 -0.109375 2.46875 0.046875 C 2.25 0.117188 2.023438 0.15625 1.796875 0.15625 C 1.578125 0.15625 1.390625 0.101562 1.234375 0 C 1.078125 -0.09375 0.945312 -0.21875 0.84375 -0.375 C 0.65625 -0.6875 0.5625 -1.082031 0.5625 -1.5625 C 0.632812 -2.394531 0.9375 -3.164062 1.46875 -3.875 C 1.820312 -4.351562 2.25 -4.695312 2.75 -4.90625 C 3 -5.007812 3.222656 -5.0625 3.421875 -5.0625 C 3.628906 -5.0625 3.789062 -5.039062 3.90625 -5 C 4.019531 -4.96875 4.117188 -4.914062 4.203125 -4.84375 C 4.398438 -4.6875 4.5 -4.488281 4.5 -4.25 C 4.5 -4.019531 4.445312 -3.820312 4.34375 -3.65625 C 4.238281 -3.488281 4.109375 -3.34375 3.953125 -3.21875 C 3.796875 -3.09375 3.613281 -2.984375 3.40625 -2.890625 C 3.195312 -2.804688 2.984375 -2.726562 2.765625 -2.65625 C 2.554688 -2.59375 2.347656 -2.535156 2.140625 -2.484375 C 1.941406 -2.429688 1.765625 -2.375 1.609375 -2.3125 C 1.492188 -2.03125 1.4375 -1.742188 1.4375 -1.453125 C 1.4375 -0.929688 1.613281 -0.582031 1.96875 -0.40625 C 2.09375 -0.332031 2.242188 -0.296875 2.421875 -0.296875 Z M 1.6875 -2.65625 C 1.6875 -2.59375 1.738281 -2.5625 1.84375 -2.5625 C 2.40625 -2.726562 2.804688 -2.894531 3.046875 -3.0625 C 3.296875 -3.226562 3.484375 -3.40625 3.609375 -3.59375 C 3.734375 -3.78125 3.796875 -4.003906 3.796875 -4.265625 C 3.796875 -4.535156 3.710938 -4.710938 3.546875 -4.796875 C 3.492188 -4.828125 3.40625 -4.84375 3.28125 -4.84375 C 3.164062 -4.84375 3.035156 -4.804688 2.890625 -4.734375 C 2.753906 -4.660156 2.628906 -4.5625 2.515625 -4.4375 C 2.398438 -4.3125 2.296875 -4.171875 2.203125 -4.015625 C 2.117188 -3.867188 2.046875 -3.710938 1.984375 -3.546875 C 1.867188 -3.285156 1.769531 -2.988281 1.6875 -2.65625 Z M 1.6875 -2.65625 "/></g></g></g><path stroke-linecap="butt" transform="matrix(0.75, 0.000000000000003008, -0.000000000000003008, 0.75, 275.824263, 229.131753)" fill="none" stroke-linejoin="miter" d="M -0.0000592501 1.001413 L 14.171817 1.001413 " stroke="#b47625" stroke-width="2" stroke-opacity="1" stroke-miterlimit="4"/><path stroke-linecap="butt" transform="matrix(0.75, 0.000000000000003008, -0.000000000000003008, 0.75, 84.047087, 230.631753)" fill="none" stroke-linejoin="miter" d="M -0.000282641 1.001413 L 14.171593 1.001413 " stroke="#b47625" stroke-width="2" stroke-opacity="1" stroke-miterlimit="4"/><g clip-path="url(#57f66b9a83)"><path fill="#b47625" d="M 184.9375 269.035156 C 184.65625 269.035156 184.421875 268.800781 184.421875 268.519531 L 184.421875 196.871094 C 184.421875 196.589844 184.65625 196.355469 184.9375 196.355469 C 185.21875 196.355469 185.453125 196.589844 185.453125 196.871094 L 185.453125 268.519531 C 185.453125 268.800781 185.226562 269.035156 184.9375 269.035156 Z M 184.9375 269.035156 " fill-opacity="1" fill-rule="nonzero"/></g><g clip-path="url(#9073a79a4f)"><path fill="#b47625" d="M 212.710938 296.46875 L 157.167969 296.46875 C 156.886719 296.46875 156.652344 296.234375 156.652344 295.953125 C 156.652344 295.671875 156.886719 295.4375 157.167969 295.4375 C 172.195312 295.4375 184.421875 283.210938 184.421875 268.183594 C 184.421875 267.898438 184.65625 267.667969 184.9375 267.667969 C 185.21875 267.667969 185.453125 267.898438 185.453125 268.183594 C 185.453125 283.210938 197.679688 295.4375 212.710938 295.4375 C 212.992188 295.4375 213.226562 295.671875 213.226562 295.953125 C 213.226562 296.234375 212.992188 296.46875 212.710938 296.46875 Z M 164.746094 295.4375 L 205.128906 295.4375 C 194.898438 292.585938 186.980469 284.121094 184.9375 273.578125 C 182.898438 284.121094 174.980469 292.59375 164.746094 295.4375 Z M 164.746094 295.4375 " fill-opacity="1" fill-rule="nonzero"/></g></svg>